<svg width="120" height="40" viewBox="0 0 120 40" fill="none" xmlns="http://www.w3.org/2000/svg">
<g clip-path="url(#clip0_420_8753)">
<path d="M0 0H119.664V40H0V0Z" fill="#1C1C1C"/>
<path d="M110.134 0H9.53405C9.16705 0 8.80405 0 8.43905 0.002C8.13305 0.004 7.82905 0.01 7.52005 0.015C6.84905 0.023 6.17905 0.082 5.51605 0.19C4.85477 0.302207 4.21422 0.513588 3.61605 0.817C2.71612 1.27724 1.9372 1.94292 1.34235 2.76014C0.747498 3.57737 0.353431 4.52317 0.192047 5.521C0.0807748 6.18271 0.0209292 6.85205 0.0130469 7.523C0.00304688 7.83 0.00304687 8.138 -0.00195312 8.444V31.56C0.00304687 31.87 0.00404688 32.17 0.0130469 32.481C0.0210469 33.152 0.0810469 33.821 0.193047 34.483C0.303047 35.146 0.513047 35.789 0.817047 36.388C1.12017 36.9862 1.51834 37.5313 1.99605 38.002C2.46889 38.479 3.01516 38.877 3.61405 39.181C4.21257 39.4851 4.8534 39.6974 5.51505 39.811C6.17805 39.921 6.84805 39.979 7.51905 39.988C7.82905 39.995 8.13205 39.999 8.43805 39.999C8.80405 40.001 9.16605 40.001 9.53305 40.001H110.133C110.492 40.001 110.857 40.001 111.217 39.999C111.521 39.999 111.834 39.995 112.139 39.989C112.809 39.979 113.477 39.921 114.139 39.811C114.803 39.6966 115.446 39.4843 116.047 39.181C116.646 38.8762 117.192 38.4775 117.665 38C118.141 37.5272 118.54 36.9826 118.847 36.386C119.149 35.786 119.357 35.144 119.466 34.481C119.577 33.82 119.639 33.151 119.651 32.479C119.655 32.169 119.655 31.869 119.655 31.558C119.663 31.194 119.663 30.833 119.663 30.464V9.536C119.663 9.17 119.663 8.806 119.655 8.444C119.655 8.138 119.655 7.83 119.651 7.524C119.639 6.85268 119.577 6.18317 119.466 5.521C119.357 4.85907 119.148 4.21747 118.847 3.618C118.23 2.41508 117.251 1.43588 116.048 0.818C115.447 0.5153 114.804 0.303975 114.14 0.191C113.479 0.081 112.81 0.022 112.14 0.015C111.835 0.01 111.522 0.004 111.218 0.002C110.858 0 110.493 0 110.134 0Z" fill="#A6A6A6"/>
<path d="M8.44309 39.125C8.13809 39.125 7.84109 39.121 7.53909 39.115C6.91257 39.1066 6.28753 39.0517 5.66909 38.951C5.09293 38.8516 4.5348 38.6669 4.01309 38.403C3.49598 38.1414 3.02429 37.7984 2.61609 37.387C2.20217 36.9801 1.85762 36.5082 1.59609 35.99C1.33116 35.4687 1.14769 34.9099 1.05209 34.333C0.949384 33.7131 0.893891 33.0863 0.886094 32.458C0.879094 32.248 0.871094 31.545 0.871094 31.545V8.445C0.871094 8.445 0.880094 7.753 0.886094 7.55C0.893546 6.92272 0.948705 6.29691 1.05109 5.678C1.14671 5.09952 1.33016 4.53905 1.59509 4.016C1.85509 3.498 2.19809 3.026 2.61009 2.618C3.43794 1.78618 4.50758 1.23736 5.66609 1.05C6.28609 0.95 6.91309 0.895 7.54109 0.887L8.44309 0.875H111.212L112.125 0.888C112.748 0.895167 113.369 0.949321 113.983 1.05C114.564 1.14865 115.127 1.33334 115.654 1.598C116.692 2.1326 117.537 2.97888 118.069 4.018C118.33 4.538 118.51 5.094 118.605 5.667C118.708 6.291 118.766 6.922 118.778 7.554C118.781 7.837 118.781 8.142 118.781 8.444C118.789 8.819 118.789 9.176 118.789 9.536V30.465C118.789 30.828 118.789 31.183 118.781 31.54C118.781 31.865 118.781 32.163 118.777 32.47C118.766 33.0911 118.709 33.7104 118.606 34.323C118.513 34.9041 118.331 35.4675 118.066 35.993C117.803 36.5056 117.46 36.9733 117.051 37.379C116.642 37.7926 116.17 38.1377 115.651 38.401C115.126 38.6672 114.564 38.8526 113.983 38.951C113.365 39.052 112.74 39.107 112.114 39.114C111.821 39.121 111.515 39.125 111.217 39.125L110.133 39.127L8.44309 39.125Z" fill="#1C1C1C"/>
<path d="M24.768 20.2999C24.7787 19.4655 25.0003 18.6473 25.4123 17.9215C25.8242 17.1957 26.413 16.5859 27.124 16.1489C26.6724 15.5038 26.0767 14.9729 25.3841 14.5983C24.6915 14.2237 23.921 14.0157 23.134 13.9909C21.454 13.8149 19.826 14.9959 18.97 14.9959C18.098 14.9959 16.78 14.0079 15.362 14.0379C14.4444 14.0674 13.5501 14.3341 12.7662 14.812C11.9823 15.29 11.3356 15.9628 10.889 16.7649C8.95499 20.1139 10.397 25.0349 12.25 27.7419C13.177 29.0669 14.26 30.5469 15.678 30.4949C17.065 30.4369 17.583 29.6099 19.258 29.6099C20.916 29.6099 21.402 30.4949 22.848 30.4619C24.337 30.4369 25.274 29.1299 26.168 27.7919C26.8345 26.8478 27.3475 25.8043 27.688 24.6999C26.823 24.3343 26.0848 23.722 25.5656 22.9395C25.0463 22.1571 24.7689 21.239 24.768 20.2999ZM22.036 12.2099C22.8475 11.2359 23.2475 9.984 23.151 8.71992C21.911 8.85019 20.7656 9.44289 19.943 10.3799C19.541 10.8374 19.233 11.3696 19.0367 11.9461C18.8404 12.5226 18.7596 13.1322 18.799 13.7399C19.4191 13.7465 20.0327 13.6122 20.5934 13.3471C21.1541 13.0821 21.6474 12.6933 22.036 12.2099ZM42.301 27.1399H37.569L36.432 30.4959H34.427L38.911 18.0779H40.994L45.477 30.4959H43.438L42.302 27.1399H42.301ZM38.058 25.5899H41.81L39.96 20.1439H39.909L38.059 25.5909L38.058 25.5899ZM55.159 25.9699C55.159 28.7829 53.653 30.5899 51.38 30.5899C50.8046 30.6199 50.2323 30.4874 49.7286 30.2074C49.225 29.9275 48.8103 29.5115 48.532 29.0069H48.489V33.4909H46.629V21.4419H48.429V22.9479H48.462C48.7531 22.4456 49.1749 22.0315 49.6825 21.7498C50.1902 21.468 50.7647 21.3292 51.345 21.3479C53.643 21.3479 55.159 23.1639 55.159 25.9699ZM53.249 25.9699C53.249 24.1369 52.301 22.9319 50.856 22.9319C49.436 22.9319 48.481 24.1619 48.481 25.9699C48.481 27.7939 49.436 29.0159 50.856 29.0159C52.301 29.0159 53.249 27.8189 53.249 25.9699ZM65.123 25.9699C65.123 28.7829 63.618 30.5899 61.345 30.5899C60.7695 30.62 60.1972 30.4875 59.6936 30.2076C59.1899 29.9276 58.7752 29.5115 58.497 29.0069H58.454V33.4909H56.595V21.4419H58.394V22.9479H58.428C58.7189 22.4454 59.1407 22.0312 59.6484 21.7495C60.1561 21.4677 60.7307 21.3289 61.311 21.3479C63.609 21.3479 65.123 23.1639 65.123 25.9699ZM63.213 25.9699C63.213 24.1369 62.266 22.9319 60.821 22.9319C59.401 22.9319 58.446 24.1619 58.446 25.9699C58.446 27.7939 59.401 29.0159 60.821 29.0159C62.266 29.0159 63.213 27.8189 63.213 25.9699ZM71.709 27.0359C71.847 28.2679 73.044 29.0759 74.679 29.0759C76.245 29.0759 77.372 28.2679 77.372 27.1569C77.372 26.1929 76.692 25.6169 75.082 25.2209L73.473 24.8329C71.193 24.2829 70.134 23.2159 70.134 21.4849C70.134 19.3429 72.001 17.8709 74.653 17.8709C77.277 17.8709 79.076 19.3429 79.136 21.4849H77.26C77.148 20.2459 76.124 19.4979 74.626 19.4979C73.129 19.4979 72.105 20.2549 72.105 21.3559C72.105 22.2339 72.759 22.7509 74.36 23.1459L75.728 23.4819C78.276 24.0849 79.334 25.1079 79.334 26.9249C79.334 29.2479 77.484 30.7029 74.541 30.7029C71.787 30.7029 69.927 29.2829 69.807 27.0359H71.709ZM83.345 19.2999V21.4419H85.067V22.9139H83.345V27.9049C83.345 28.6809 83.69 29.0419 84.447 29.0419C84.651 29.0379 84.855 29.0239 85.058 28.9989V30.4619C84.718 30.5259 84.372 30.5539 84.026 30.5479C82.193 30.5479 81.478 29.8589 81.478 28.1039V22.9139H80.162V21.4419H81.478V19.2999H83.345ZM86.064 25.9699C86.064 23.1209 87.742 21.3309 90.358 21.3309C92.983 21.3309 94.653 23.1209 94.653 25.9699C94.653 28.8259 92.992 30.6079 90.358 30.6079C87.725 30.6079 86.064 28.8259 86.064 25.9699ZM92.759 25.9699C92.759 24.0159 91.864 22.8619 90.358 22.8619C88.852 22.8619 87.958 24.0239 87.958 25.9699C87.958 27.9319 88.852 29.0759 90.358 29.0759C91.864 29.0759 92.759 27.9319 92.759 25.9699ZM96.185 21.4419H97.957V22.9829H98C98.1202 22.5018 98.4022 22.0766 98.7989 21.7789C99.1955 21.4812 99.6824 21.329 100.178 21.3479C100.392 21.3469 100.606 21.3699 100.815 21.4169V23.1549C100.545 23.0723 100.263 23.0344 99.98 23.0429C99.71 23.0318 99.4407 23.0793 99.1907 23.1821C98.9408 23.2849 98.7161 23.4406 98.532 23.6385C98.348 23.8365 98.2089 24.0719 98.1245 24.3286C98.0401 24.5854 98.0123 24.8574 98.043 25.1259V30.4959H96.185V21.4419ZM109.383 27.8369C109.133 29.4799 107.533 30.6079 105.485 30.6079C102.851 30.6079 101.216 28.8439 101.216 26.0129C101.216 23.1729 102.86 21.3309 105.407 21.3309C107.912 21.3309 109.487 23.0509 109.487 25.7969V26.4339H103.092V26.5459C103.062 26.8792 103.104 27.2149 103.214 27.5308C103.324 27.8468 103.5 28.1355 103.731 28.3779C103.962 28.6201 104.241 28.8106 104.551 28.9368C104.861 29.063 105.194 29.122 105.528 29.1099C105.967 29.1517 106.408 29.0503 106.785 28.8209C107.162 28.5914 107.454 28.2463 107.619 27.8369H109.383ZM103.101 25.1349H107.627C107.644 24.8353 107.599 24.5354 107.495 24.2541C107.39 23.9728 107.228 23.7163 107.019 23.5009C106.811 23.2847 106.56 23.114 106.283 22.9997C106.005 22.8854 105.707 22.83 105.407 22.8369C105.104 22.8352 104.804 22.8934 104.524 23.0082C104.244 23.123 103.99 23.292 103.775 23.5057C103.561 23.7193 103.391 23.9732 103.275 24.2529C103.16 24.5325 103.1 24.8323 103.101 25.1349ZM36.737 11.2529H37.535C37.6723 11.2702 37.8116 11.2588 37.9443 11.2195C38.077 11.1802 38.2 11.1138 38.3057 11.0245C38.4115 10.9353 38.4975 10.8251 38.5585 10.7009C38.6195 10.5766 38.654 10.4412 38.66 10.3029C38.66 9.75192 38.246 9.39592 37.544 9.39592C37.4032 9.37619 37.26 9.38489 37.1226 9.4215C36.9853 9.45811 36.8567 9.52189 36.7445 9.60906C36.6322 9.69623 36.5386 9.80503 36.4691 9.92902C36.3996 10.053 36.3557 10.1897 36.34 10.3309H35.464C35.4793 10.0747 35.5471 9.82445 35.6632 9.59558C35.7793 9.36672 35.9413 9.16417 36.139 9.00053C36.3366 8.83688 36.5659 8.71563 36.8124 8.64431C37.0589 8.57298 37.3175 8.55311 37.572 8.58592C38.747 8.58592 39.574 9.24392 39.574 10.1899C39.5768 10.5071 39.4707 10.8157 39.2734 11.0642C39.0761 11.3126 38.7996 11.4858 38.49 11.5549V11.6249C38.857 11.6413 39.2025 11.8023 39.4512 12.0726C39.6999 12.343 39.8314 12.7009 39.817 13.0679C39.7896 13.3317 39.7099 13.5873 39.5826 13.8199C39.4552 14.0525 39.2828 14.2574 39.0753 14.4226C38.8679 14.5877 38.6296 14.7099 38.3744 14.7819C38.1192 14.8539 37.8522 14.8743 37.589 14.8419C37.3253 14.8778 37.057 14.8602 36.8002 14.7902C36.5434 14.7202 36.3033 14.5993 36.0942 14.4346C35.8851 14.2699 35.7113 14.0649 35.5831 13.8316C35.4549 13.5984 35.3749 13.3417 35.348 13.0769H36.238C36.291 13.6469 36.815 14.0159 37.588 14.0159C38.362 14.0159 38.868 13.6019 38.868 13.0189C38.868 12.4279 38.392 12.0629 37.561 12.0629H36.737V11.2529ZM40.829 13.4239C40.829 12.6139 41.433 12.1469 42.503 12.0799L43.723 12.0099V11.6209C43.723 11.1449 43.409 10.8769 42.801 10.8769C42.305 10.8769 41.961 11.0589 41.862 11.3769H41.002C41.092 10.6039 41.822 10.1069 42.842 10.1069C43.972 10.1069 44.608 10.6699 44.608 11.6209V14.6979H43.752V14.0649H43.682C43.5392 14.292 43.3388 14.4771 43.1011 14.6013C42.8633 14.7255 42.5969 14.7844 42.329 14.7719C42.14 14.7915 41.949 14.7712 41.7683 14.7124C41.5876 14.6537 41.4213 14.5577 41.2799 14.4307C41.1386 14.3037 41.0255 14.1485 40.9478 13.9751C40.8701 13.8017 40.8297 13.6139 40.829 13.4239ZM43.723 13.0399V12.6629L42.623 12.7329C42.003 12.7749 41.722 12.9859 41.722 13.3829C41.722 13.7879 42.073 14.0229 42.557 14.0229C42.6986 14.0375 42.8416 14.0234 42.9776 13.9814C43.1136 13.9395 43.2398 13.8706 43.3486 13.7789C43.4575 13.6872 43.5467 13.5745 43.611 13.4475C43.6753 13.3205 43.7134 13.1819 43.723 13.0399ZM46.967 10.9429V14.6979H46.078V10.1949H49.043V10.9429H46.967ZM54.429 12.4439C54.429 13.8749 53.705 14.7719 52.569 14.7719C52.2899 14.7912 52.0112 14.7302 51.7656 14.5963C51.5201 14.4623 51.3179 14.261 51.183 14.0159H51.113V16.1949H50.223V10.1949H51.079V10.9389H51.146C51.2833 10.6853 51.488 10.4746 51.7375 10.3301C51.9871 10.1855 52.2717 10.1128 52.56 10.1199C53.705 10.1199 54.429 11.0129 54.429 12.4439ZM53.515 12.4439C53.515 11.4939 53.065 10.9179 52.312 10.9179C51.564 10.9179 51.096 11.5049 51.096 12.4479C51.096 13.3869 51.564 13.9739 52.308 13.9739C53.064 13.9739 53.515 13.3989 53.515 12.4439ZM55.612 16.3099V15.5449C55.708 15.5579 55.805 15.5629 55.902 15.5619C56.0914 15.5762 56.2793 15.5199 56.4298 15.404C56.5802 15.2881 56.6825 15.1207 56.717 14.9339L56.783 14.7139L55.153 10.1939H56.121L57.25 13.7709H57.32L58.445 10.1949H59.388L57.709 14.8839C57.324 15.9789 56.899 16.3309 55.98 16.3309C55.8571 16.33 55.7343 16.3233 55.612 16.3109V16.3099ZM60.08 13.4199H60.965C61.052 13.8169 61.424 14.0239 61.945 14.0239C62.536 14.0239 62.899 13.7639 62.899 13.3579C62.899 12.9239 62.573 12.7169 61.944 12.7169H61.271V12.0269H61.933C62.47 12.0269 62.743 11.8199 62.743 11.4429C62.743 11.1129 62.479 10.8599 61.933 10.8599C61.436 10.8599 61.073 11.0709 61.015 11.4269H60.158C60.2217 11.0181 60.4435 10.6507 60.7755 10.4038C61.1075 10.157 61.5232 10.0503 61.933 10.1069C63.003 10.1069 63.615 10.5919 63.615 11.3529C63.6199 11.5645 63.552 11.7713 63.4228 11.9389C63.2936 12.1066 63.1108 12.2248 62.905 12.2739V12.3439C63.1504 12.3758 63.3756 12.4966 63.5379 12.6835C63.7001 12.8705 63.788 13.1104 63.785 13.3579C63.785 14.2139 63.057 14.7799 61.945 14.7799C60.961 14.7799 60.162 14.3299 60.08 13.4199ZM65.065 14.6979V10.1949H65.945V13.2919H66.016L68.091 10.1949H68.972V14.6979H68.092V11.5839H68.025L65.945 14.6979H65.065ZM73.825 10.9429H72.407V14.6979H71.517V10.9429H70.099V10.1949H73.825V10.9429ZM78.612 13.4819C78.4909 13.8935 78.2292 14.2494 77.8724 14.4875C77.5156 14.7257 77.0865 14.831 76.66 14.7849C76.3633 14.7928 76.0683 14.736 75.7958 14.6184C75.5232 14.5009 75.2795 14.3254 75.0815 14.1041C74.8836 13.8829 74.7362 13.6212 74.6496 13.3373C74.563 13.0533 74.5392 12.754 74.58 12.4599C74.5406 12.1651 74.565 11.8652 74.6515 11.5807C74.738 11.2961 74.8847 11.0334 75.0815 10.8104C75.2783 10.5874 75.5208 10.4093 75.7924 10.2881C76.0641 10.1669 76.3586 10.1054 76.656 10.1079C77.909 10.1079 78.666 10.9639 78.666 12.3779V12.6879H75.486V12.7379C75.4717 12.9033 75.4923 13.0698 75.5463 13.2268C75.6004 13.3838 75.6867 13.5276 75.7998 13.6492C75.9128 13.7707 76.0501 13.8672 76.2027 13.9325C76.3554 13.9977 76.52 14.0302 76.686 14.0279C76.8984 14.0532 77.1135 14.0148 77.304 13.9176C77.4945 13.8204 77.6518 13.6687 77.756 13.4819H78.612ZM75.486 12.0309H77.759C77.7703 11.8799 77.7499 11.7281 77.6991 11.5854C77.6483 11.4427 77.5682 11.3122 77.4639 11.2023C77.3597 11.0923 77.2336 11.0055 77.0938 10.9472C76.9539 10.8889 76.8034 10.8606 76.652 10.8639C76.4982 10.8618 76.3455 10.8905 76.203 10.9484C76.0605 11.0063 75.9311 11.0922 75.8223 11.201C75.7136 11.3098 75.6278 11.4393 75.5701 11.5819C75.5123 11.7244 75.4837 11.8771 75.486 12.0309ZM82.379 10.1949H84.409C85.291 10.1949 85.807 10.6409 85.807 11.3399C85.8085 11.5615 85.7338 11.7769 85.5954 11.95C85.4571 12.1231 85.2635 12.2435 85.047 12.2909V12.3609C85.3098 12.3778 85.5561 12.4949 85.735 12.688C85.914 12.8812 86.0121 13.1356 86.009 13.3989C86.009 14.1849 85.419 14.6979 84.43 14.6979H82.38L82.379 10.1949ZM83.26 10.8769V12.0429H84.141C84.678 12.0429 84.935 11.8359 84.935 11.4559C84.935 11.1049 84.711 10.8759 84.24 10.8759L83.26 10.8769ZM83.26 12.6969V14.0159H84.314C84.839 14.0159 85.121 13.7839 85.121 13.3579C85.121 12.9079 84.802 12.6959 84.203 12.6959L83.26 12.6969Z" fill="white"/>
</g>
<defs>
<clipPath id="clip0_420_8753">
<rect width="120" height="40" fill="white"/>
</clipPath>
</defs>
</svg>
