<svg width="180" height="60" viewBox="0 0 180 60" fill="none" xmlns="http://www.w3.org/2000/svg">
<g clip-path="url(#clip0_316_26873)">
<path d="M165.203 0H14.3025C13.752 0 13.2075 0 12.66 0.003C12.201 0.006 11.745 0.015 11.2815 0.0225C10.275 0.0345 9.27004 0.123 8.27554 0.285C7.28362 0.45331 6.3228 0.770382 5.42554 1.2255C4.07564 1.91587 2.90726 2.91438 2.01499 4.14022C1.12271 5.36605 0.531612 6.78476 0.289535 8.2815C0.122627 9.27407 0.0328586 10.2781 0.0210352 11.2845C0.00603516 11.745 0.00603516 12.207 -0.00146484 12.666V47.34C0.00603516 47.805 0.00753516 48.255 0.0210352 48.7215C0.0330352 49.728 0.123035 50.7315 0.291035 51.7245C0.456035 52.719 0.771035 53.6835 1.22704 54.582C1.68172 55.4793 2.27898 56.297 2.99554 57.003C3.7048 57.7184 4.5242 58.3155 5.42253 58.7715C6.32032 59.2276 7.28156 59.5461 8.27403 59.7165C9.26853 59.8815 10.2735 59.9685 11.28 59.982C11.745 59.9925 12.1995 59.9985 12.6585 59.9985C13.2075 60.0015 13.7505 60.0015 14.301 60.0015H165.201C165.74 60.0015 166.287 60.0015 166.827 59.9985C167.283 59.9985 167.753 59.9925 168.21 59.9835C169.215 59.9685 170.217 59.8815 171.21 59.7165C172.206 59.5449 173.17 59.2264 174.072 58.7715C174.97 58.3144 175.79 57.7163 176.499 57C177.213 56.2908 177.811 55.4739 178.272 54.579C178.725 53.679 179.037 52.716 179.201 51.7215C179.367 50.73 179.46 49.7265 179.478 48.7185C179.484 48.2535 179.484 47.8035 179.484 47.337C179.496 46.791 179.496 46.2495 179.496 45.696V14.304C179.496 13.755 179.496 13.209 179.484 12.666C179.484 12.207 179.484 11.745 179.478 11.286C179.46 10.279 179.367 9.27476 179.201 8.2815C179.037 7.2886 178.724 6.3262 178.272 5.427C177.346 3.62263 175.878 2.15382 174.074 1.227C173.172 0.77295 172.207 0.455963 171.212 0.2865C170.22 0.1215 169.217 0.033 168.212 0.0225C167.754 0.015 167.285 0.006 166.829 0.003C166.289 0 165.741 0 165.203 0Z" fill="#A6A6A6"/>
<path d="M12.6676 58.6875C12.2101 58.6875 11.7646 58.6815 11.3116 58.6725C10.3718 58.6598 9.43422 58.5776 8.50657 58.4265C7.64233 58.2774 6.80513 58.0004 6.02257 57.6045C5.2469 57.2121 4.53937 56.6975 3.92707 56.0805C3.30619 55.4701 2.78936 54.7623 2.39707 53.985C1.99967 53.2031 1.72447 52.3648 1.58107 51.4995C1.42701 50.5697 1.34377 49.6295 1.33207 48.687C1.32157 48.372 1.30957 47.3175 1.30957 47.3175V12.6675C1.30957 12.6675 1.32307 11.6295 1.33207 11.325C1.34325 10.3841 1.42599 9.44537 1.57957 8.517C1.72299 7.64928 1.99816 6.80858 2.39557 6.024C2.78557 5.247 3.30007 4.539 3.91807 3.927C5.15985 2.67927 6.76429 1.85604 8.50207 1.575C9.43207 1.425 10.3726 1.3425 11.3146 1.3305L12.6676 1.3125H166.821L168.191 1.332C169.124 1.34275 170.056 1.42398 170.978 1.575C171.849 1.72297 172.694 2.00001 173.484 2.397C175.041 3.19891 176.308 4.46832 177.107 6.027C177.498 6.807 177.768 7.641 177.911 8.5005C178.065 9.4365 178.152 10.383 178.17 11.331C178.175 11.7555 178.175 12.213 178.175 12.666C178.187 13.2285 178.187 13.764 178.187 14.304V45.6975C178.187 46.242 178.187 46.7745 178.175 47.31C178.175 47.7975 178.175 48.2445 178.169 48.705C178.152 49.6366 178.066 50.5656 177.912 51.4845C177.773 52.3562 177.499 53.2012 177.102 53.9895C176.707 54.7584 176.193 55.46 175.58 56.0685C174.966 56.689 174.257 57.2066 173.48 57.6015C172.692 58.0007 171.848 58.2789 170.978 58.4265C170.051 58.578 169.113 58.6605 168.174 58.671C167.735 58.6815 167.276 58.6875 166.829 58.6875L165.203 58.6905L12.6676 58.6875Z" fill="#1C1C1C"/>
<path d="M37.1536 30.45C37.1696 29.1983 37.5021 27.971 38.12 26.8824C38.7379 25.7937 39.6211 24.879 40.6876 24.2235C40.0103 23.2558 39.1166 22.4594 38.0777 21.8975C37.0388 21.3356 35.8831 21.0237 34.7026 20.9865C32.1826 20.7225 29.7406 22.494 28.4566 22.494C27.1486 22.494 25.1716 21.012 23.0446 21.057C21.6682 21.1013 20.3267 21.5013 19.1509 22.2182C17.975 22.935 17.0049 23.9443 16.3351 25.1475C13.4341 30.171 15.5971 37.5525 18.3766 41.613C19.7671 43.6005 21.3916 45.8205 23.5186 45.7425C25.5991 45.6555 26.3761 44.415 28.8886 44.415C31.3756 44.415 32.1046 45.7425 34.2736 45.693C36.5071 45.6555 37.9126 43.695 39.2536 41.688C40.2533 40.2718 41.0228 38.7065 41.5336 37.05C40.2361 36.5015 39.1288 35.5831 38.3499 34.4094C37.571 33.2357 37.1549 31.8586 37.1536 30.45ZM33.0556 18.315C34.2728 16.854 34.8728 14.9761 34.7281 13.08C32.868 13.2754 31.1499 14.1645 29.9161 15.57C29.313 16.2562 28.8511 17.0545 28.5566 17.9193C28.2622 18.7841 28.141 19.6984 28.2001 20.61C29.1303 20.6198 30.0506 20.4184 30.8917 20.0208C31.7328 19.6233 32.4727 19.04 33.0556 18.315ZM63.4531 40.71H56.3551L54.6496 45.744H51.6421L58.3681 27.117H61.4926L68.2171 45.744H65.1586L63.4546 40.71H63.4531ZM57.0886 38.385H62.7166L59.9416 30.216H59.8651L57.0901 38.3865L57.0886 38.385ZM82.7401 38.955C82.7401 43.1745 80.4811 45.885 77.0716 45.885C76.2084 45.93 75.35 45.7312 74.5946 45.3113C73.8391 44.8914 73.2171 44.2673 72.7996 43.5105H72.7351V50.2365H69.9451V32.163H72.6451V34.422H72.6946C73.1312 33.6685 73.7639 33.0474 74.5254 32.6248C75.2868 32.2022 76.1486 31.9938 77.0191 32.022C80.4661 32.022 82.7401 34.746 82.7401 38.955ZM79.8751 38.955C79.8751 36.2055 78.4531 34.398 76.2856 34.398C74.1556 34.398 72.7231 36.243 72.7231 38.955C72.7231 41.691 74.1556 43.524 76.2856 43.524C78.4531 43.524 79.8751 41.7285 79.8751 38.955ZM97.6861 38.955C97.6861 43.1745 95.4286 45.885 92.0191 45.885C91.1559 45.9302 90.2974 45.7314 89.5419 45.3115C88.7864 44.8916 88.1644 44.2674 87.7471 43.5105H87.6826V50.2365H84.8941V32.163H87.5926V34.422H87.6436C88.0799 33.6682 88.7126 33.047 89.4741 32.6243C90.2357 32.2017 91.0976 31.9935 91.9681 32.022C95.4151 32.022 97.6861 34.746 97.6861 38.955ZM94.8211 38.955C94.8211 36.2055 93.4006 34.398 91.2331 34.398C89.1031 34.398 87.6706 36.243 87.6706 38.955C87.6706 41.691 89.1031 43.524 91.2331 43.524C93.4006 43.524 94.8211 41.7285 94.8211 38.955ZM107.565 40.554C107.772 42.402 109.568 43.614 112.02 43.614C114.369 43.614 116.06 42.402 116.06 40.7355C116.06 39.2895 115.04 38.4255 112.625 37.8315L110.211 37.2495C106.791 36.4245 105.203 34.824 105.203 32.2275C105.203 29.0145 108.003 26.8065 111.981 26.8065C115.917 26.8065 118.616 29.0145 118.706 32.2275H115.892C115.724 30.369 114.188 29.247 111.941 29.247C109.695 29.247 108.159 30.3825 108.159 32.034C108.159 33.351 109.14 34.1265 111.542 34.719L113.594 35.223C117.416 36.1275 119.003 37.662 119.003 40.3875C119.003 43.872 116.228 46.0545 111.813 46.0545C107.682 46.0545 104.892 43.9245 104.712 40.554H107.565ZM125.019 28.95V32.163H127.602V34.371H125.019V41.8575C125.019 43.0215 125.537 43.563 126.672 43.563C126.978 43.557 127.284 43.536 127.589 43.4985V45.693C127.079 45.789 126.56 45.831 126.041 45.822C123.291 45.822 122.219 44.7885 122.219 42.156V34.371H120.245V32.163H122.219V28.95H125.019ZM129.098 38.955C129.098 34.6815 131.615 31.9965 135.539 31.9965C139.476 31.9965 141.981 34.6815 141.981 38.955C141.981 43.239 139.49 45.912 135.539 45.912C131.589 45.912 129.098 43.239 129.098 38.955ZM139.14 38.955C139.14 36.024 137.798 34.293 135.539 34.293C133.28 34.293 131.939 36.036 131.939 38.955C131.939 41.898 133.28 43.614 135.539 43.614C137.798 43.614 139.14 41.898 139.14 38.955ZM144.279 32.163H146.937V34.4745H147.002C147.182 33.7528 147.605 33.1151 148.2 32.6685C148.795 32.2219 149.525 31.9936 150.269 32.022C150.59 32.0205 150.911 32.055 151.224 32.1255V34.7325C150.819 34.6085 150.395 34.5518 149.972 34.5645C149.567 34.5478 149.163 34.619 148.788 34.7732C148.413 34.9275 148.076 35.161 147.8 35.4579C147.524 35.7548 147.315 36.108 147.188 36.4931C147.062 36.8782 147.02 37.2862 147.066 37.689V45.744H144.279V32.163ZM164.076 41.7555C163.701 44.22 161.301 45.912 158.229 45.912C154.278 45.912 151.826 43.266 151.826 39.0195C151.826 34.7595 154.292 31.9965 158.112 31.9965C161.87 31.9965 164.232 34.5765 164.232 38.6955V39.651H154.64V39.819C154.595 40.3189 154.657 40.8225 154.822 41.2964C154.988 41.7703 155.252 42.2034 155.598 42.567C155.944 42.9303 156.363 43.216 156.828 43.4053C157.293 43.5946 157.792 43.6831 158.294 43.665C158.952 43.7277 159.614 43.5756 160.179 43.2314C160.744 42.8873 161.183 42.3695 161.43 41.7555H164.076ZM154.653 37.7025H161.442C161.468 37.2531 161.4 36.8032 161.243 36.3812C161.086 35.9593 160.844 35.5746 160.53 35.2515C160.218 34.9272 159.842 34.6712 159.426 34.4997C159.009 34.3283 158.562 34.2451 158.112 34.2555C157.658 34.2529 157.208 34.3402 156.788 34.5124C156.368 34.6846 155.986 34.9382 155.665 35.2586C155.343 35.5791 155.088 35.96 154.915 36.3794C154.741 36.7989 154.652 37.2485 154.653 37.7025ZM55.1071 16.8795H56.3041C56.51 16.9054 56.7191 16.8883 56.918 16.8294C57.117 16.7704 57.3016 16.6708 57.4602 16.5369C57.6188 16.403 57.7479 16.2377 57.8393 16.0514C57.9308 15.8651 57.9826 15.6619 57.9916 15.4545C57.9916 14.628 57.3706 14.094 56.3176 14.094C56.1064 14.0644 55.8915 14.0775 55.6855 14.1324C55.4795 14.1873 55.2867 14.283 55.1183 14.4137C54.9499 14.5445 54.8095 14.7077 54.7052 14.8936C54.601 15.0796 54.5352 15.2846 54.5116 15.4965H53.1976C53.2205 15.1122 53.3223 14.7368 53.4964 14.3935C53.6706 14.0502 53.9135 13.7464 54.21 13.5009C54.5065 13.2554 54.8504 13.0736 55.2202 12.9666C55.59 12.8596 55.9778 12.8298 56.3596 12.879C58.1221 12.879 59.3626 13.866 59.3626 15.285C59.3668 15.7608 59.2076 16.2237 58.9117 16.5963C58.6158 16.969 58.201 17.2288 57.7366 17.3325V17.4375C58.287 17.4621 58.8054 17.7035 59.1784 18.1091C59.5514 18.5147 59.7486 19.0514 59.7271 19.602C59.686 19.9976 59.5664 20.3811 59.3754 20.73C59.1844 21.0789 58.9258 21.3862 58.6146 21.634C58.3034 21.8817 57.946 22.065 57.5632 22.173C57.1804 22.281 56.7799 22.3116 56.3851 22.263C55.9895 22.3168 55.5871 22.2904 55.2019 22.1854C54.8167 22.0805 54.4566 21.8991 54.1429 21.6521C53.8293 21.405 53.5685 21.0974 53.3762 20.7476C53.1839 20.3977 53.064 20.0127 53.0236 19.6155H54.3586C54.4381 20.4705 55.2241 21.024 56.3836 21.024C57.5446 21.024 58.3036 20.403 58.3036 19.5285C58.3036 18.642 57.5896 18.0945 56.3431 18.0945H55.1071V16.8795ZM61.2451 20.136C61.2451 18.921 62.1511 18.2205 63.7561 18.12L65.5861 18.015V17.4315C65.5861 16.7175 65.1151 16.3155 64.2031 16.3155C63.4591 16.3155 62.9431 16.5885 62.7946 17.0655H61.5046C61.6396 15.906 62.7346 15.1605 64.2646 15.1605C65.9596 15.1605 66.9136 16.005 66.9136 17.4315V22.047H65.6296V21.0975H65.5246C65.3104 21.4381 65.0097 21.7157 64.6532 21.9021C64.2966 22.0884 63.897 22.1767 63.4951 22.158C63.2116 22.1873 62.9251 22.157 62.6541 22.0688C62.383 21.9806 62.1335 21.8367 61.9215 21.6462C61.7095 21.4557 61.5398 21.2229 61.4233 20.9627C61.3068 20.7026 61.2461 20.421 61.2451 20.136ZM65.5861 19.56V18.9945L63.9361 19.0995C63.0061 19.1625 62.5846 19.479 62.5846 20.0745C62.5846 20.682 63.1111 21.0345 63.8371 21.0345C64.0494 21.0563 64.264 21.0352 64.468 20.9723C64.6721 20.9094 64.8613 20.8061 65.0245 20.6685C65.1878 20.5309 65.3216 20.3618 65.4181 20.1714C65.5145 19.9809 65.5717 19.773 65.5861 19.56ZM70.4521 16.4145V22.047H69.1186V15.2925H73.5661V16.4145H70.4521ZM81.6451 18.666C81.6451 20.8125 80.5591 22.158 78.8551 22.158C78.4365 22.1869 78.0184 22.0954 77.65 21.8945C77.2817 21.6936 76.9784 21.3916 76.7761 21.024H76.6711V24.2925H75.3361V15.2925H76.6201V16.4085H76.7206C76.9265 16.0281 77.2336 15.712 77.6079 15.4952C77.9822 15.2784 78.4091 15.1693 78.8416 15.18C80.5591 15.18 81.6451 16.5195 81.6451 18.666ZM80.2741 18.666C80.2741 17.241 79.5991 16.377 78.4696 16.377C77.3476 16.377 76.6456 17.2575 76.6456 18.672C76.6456 20.0805 77.3476 20.961 78.4636 20.961C79.5976 20.961 80.2741 20.0985 80.2741 18.666ZM83.4196 24.465V23.3175C83.5636 23.337 83.7091 23.3445 83.8546 23.343C84.1386 23.3644 84.4206 23.28 84.6463 23.1062C84.8719 22.9323 85.0253 22.6811 85.0771 22.401L85.1761 22.071L82.7311 15.291H84.1831L85.8766 20.6565H85.9816L87.6691 15.2925H89.0836L86.5651 22.326C85.9876 23.9685 85.3501 24.4965 83.9716 24.4965C83.7872 24.4951 83.603 24.4851 83.4196 24.4665V24.465ZM90.1216 20.13H91.4491C91.5796 20.7255 92.1376 21.036 92.9191 21.036C93.8056 21.036 94.3501 20.646 94.3501 20.037C94.3501 19.386 93.8611 19.0755 92.9176 19.0755H91.9081V18.0405H92.9011C93.7066 18.0405 94.1161 17.73 94.1161 17.1645C94.1161 16.6695 93.7201 16.29 92.9011 16.29C92.1556 16.29 91.6111 16.6065 91.5241 17.1405H90.2386C90.3342 16.5273 90.6668 15.9762 91.1648 15.6059C91.6628 15.2356 92.2863 15.0756 92.9011 15.1605C94.5061 15.1605 95.4241 15.888 95.4241 17.0295C95.4314 17.3469 95.3296 17.6571 95.1358 17.9085C94.942 18.1599 94.6678 18.3373 94.3591 18.411V18.516C94.7272 18.5638 95.0651 18.745 95.3084 19.0254C95.5517 19.3058 95.6836 19.6658 95.6791 20.037C95.6791 21.321 94.5871 22.17 92.9191 22.17C91.4431 22.17 90.2446 21.495 90.1216 20.13ZM97.5991 22.047V15.2925H98.9191V19.938H99.0256L102.138 15.2925H103.46V22.047H102.14V17.376H102.039L98.9191 22.047H97.5991ZM110.739 16.4145H108.612V22.047H107.277V16.4145H105.15V15.2925H110.739V16.4145ZM117.92 20.223C117.738 20.8403 117.345 21.3742 116.81 21.7314C116.275 22.0887 115.631 22.2465 114.992 22.1775C114.546 22.1893 114.104 22.1041 113.695 21.9278C113.286 21.7514 112.921 21.4882 112.624 21.1563C112.327 20.8245 112.106 20.432 111.976 20.0061C111.846 19.5801 111.81 19.1311 111.872 18.69C111.812 18.2478 111.849 17.798 111.979 17.3711C112.109 16.9442 112.329 16.5502 112.624 16.2157C112.919 15.8812 113.283 15.614 113.69 15.4322C114.098 15.2504 114.539 15.1583 114.986 15.162C116.865 15.162 118.001 16.446 118.001 18.567V19.032H113.231V19.107C113.209 19.3551 113.24 19.6049 113.321 19.8403C113.402 20.0758 113.532 20.2916 113.701 20.4739C113.871 20.6562 114.077 20.801 114.306 20.8988C114.535 20.9967 114.782 21.0454 115.031 21.042C115.349 21.0799 115.672 21.0223 115.958 20.8765C116.243 20.7307 116.479 20.5032 116.636 20.223H117.92ZM113.231 18.0465H116.64C116.657 17.8199 116.626 17.5923 116.55 17.3782C116.474 17.1641 116.354 16.9684 116.198 16.8035C116.041 16.6386 115.852 16.5083 115.642 16.4209C115.432 16.3335 115.207 16.291 114.98 16.296C114.749 16.2928 114.52 16.3358 114.306 16.4227C114.092 16.5095 113.898 16.6384 113.735 16.8016C113.572 16.9648 113.443 17.1591 113.357 17.3729C113.27 17.5868 113.227 17.8158 113.231 18.0465ZM123.57 15.2925H126.615C127.938 15.2925 128.712 15.9615 128.712 17.01C128.714 17.3424 128.602 17.6655 128.395 17.9252C128.187 18.1848 127.897 18.3654 127.572 18.4365V18.5415C127.966 18.5668 128.336 18.7425 128.604 19.0322C128.873 19.3219 129.02 19.7035 129.015 20.0985C129.015 21.2775 128.13 22.047 126.647 22.047H123.572L123.57 15.2925ZM124.892 16.3155V18.0645H126.213C127.019 18.0645 127.404 17.754 127.404 17.184C127.404 16.6575 127.068 16.314 126.362 16.314L124.892 16.3155ZM124.892 19.0455V21.024H126.473C127.26 21.024 127.683 20.676 127.683 20.037C127.683 19.362 127.205 19.044 126.306 19.044L124.892 19.0455Z" fill="white"/>
</g>
<defs>
<clipPath id="clip0_316_26873">
<rect width="180" height="60" fill="white"/>
</clipPath>
</defs>
</svg>
