<svg width="340" height="156" viewBox="0 0 340 156" fill="none" xmlns="http://www.w3.org/2000/svg">
<g filter="url(#filter0_d_480_15429)">
<rect x="22" y="15" width="300" height="48" rx="24" transform="rotate(4 22 15)" fill="#0077FF" shape-rendering="geometricPrecision"/>
<path d="M54.1968 37.0998C54.3447 34.985 52.8258 33.1946 48.1373 32.8668L45.4638 32.6798C42.2517 32.4552 40.3356 33.7648 40.1975 35.7399C40.1138 36.937 40.8561 37.7909 42.1529 37.8816C43.1704 37.9527 43.7138 37.3491 43.7473 36.8703C43.7557 36.7506 43.7399 36.6894 43.7399 36.6894C43.7399 36.6894 43.616 36.7408 43.3966 36.7255C42.8978 36.6906 42.6236 36.3106 42.6627 35.7519C42.7422 34.6147 43.7112 33.66 45.5267 33.7869L45.7063 33.7995C45.6882 34.0589 45.6259 34.3753 45.5382 34.7701L43.1346 44.4861C43.0524 44.8012 42.966 45.176 42.9437 45.4953C42.9158 45.8943 42.9719 46.239 43.2303 46.5578C43.6515 47.1286 44.7167 47.6642 46.7917 47.8093C50.8617 48.0939 52.911 46.3125 53.0756 43.9583C53.19 42.3223 52.0409 40.9789 50.2862 40.5554C52.8182 40.4718 54.081 38.7557 54.1968 37.0998ZM48.091 40.9833C49.5275 41.0838 50.428 41.9688 50.3177 43.5449C50.1838 45.4602 48.7438 46.8431 46.5292 46.6883C46.1103 46.659 45.7924 46.6167 45.496 46.5559C45.477 46.2538 45.5374 45.6766 45.7017 45.0466L46.7343 40.8885L48.091 40.9833ZM48.9783 34.0283C50.6143 34.1427 51.5505 35.0903 51.4389 36.6864C51.2854 38.881 49.7239 39.9948 48.1677 39.886L46.9906 39.8037L48.4396 33.9906L48.9783 34.0283ZM58.2928 48.6136C61.0461 48.8061 63.1468 47.1486 63.3407 44.3754C63.4621 42.6396 62.242 41.4516 60.3866 41.3219C59.5885 41.266 58.9389 41.381 58.402 41.6041L58.6527 40.5991C58.9898 39.2193 58.8507 38.6282 57.3145 38.5207C56.5763 38.4691 56.2644 38.6277 56.2644 38.6277C56.2644 38.6277 56.4319 39.1006 56.1245 40.3422L55.2661 43.7305C55.1528 44.2038 55.0552 44.7383 55.026 45.1573C54.8892 47.1125 56.0184 48.4545 58.2928 48.6136ZM58.0422 43.0225C58.3197 42.7812 58.8464 42.4171 59.5247 42.4645C60.3627 42.5231 60.8665 43.0596 60.7926 44.117C60.6238 46.5311 59.5796 47.7011 58.4623 47.623C57.7042 47.57 57.3428 47.0034 57.3972 46.2253C57.4349 45.6866 57.5324 45.1521 57.6457 44.6788L58.0422 43.0225ZM64.4854 44.6358C64.2899 45.4241 64.2012 46.1196 64.1733 46.5187C64.0617 48.1148 64.9565 49.0795 66.3332 49.1758C68.2685 49.3111 69.8375 47.5162 70.1109 46.4727C70.1959 46.1178 70.0275 45.9456 69.7681 45.9275C69.1741 46.9686 68.2302 47.5642 67.5519 47.5168C66.8336 47.4665 66.5335 46.8842 66.8167 45.7011L67.9101 41.2465C68.2472 39.8666 68.1081 39.2755 66.5719 39.1681C65.8337 39.1165 65.5218 39.2751 65.5218 39.2751C65.5218 39.2751 65.6893 39.7479 65.3819 40.9895L64.4854 44.6358ZM81.419 45.7598C81.6524 45.5756 81.716 45.2393 81.5263 45.0857C81.5263 45.0857 80.6447 45.3648 79.3065 45.2913L78.9275 45.2648C79.0607 44.7929 79.1369 44.277 79.1745 43.7383C79.3238 41.6035 78.0147 39.9682 75.9996 39.8273C75.2215 39.7729 74.4708 39.9009 73.6578 40.3452C74.2394 38.6216 74.9282 37.0859 75.5538 36.1673C76.2932 35.0562 76.8356 34.7533 77.7135 34.8147C78.3519 34.8593 79.1805 35.3383 80.0983 35.4025C81.6545 35.5113 82.3046 34.8149 82.38 33.7376C82.4037 33.3984 82.2738 33.249 82.2738 33.249C79.8424 33.9009 77.2283 33.4375 75.517 34.4004C72.2623 36.2178 70.1245 40.6996 69.7854 45.5478C69.6445 47.5629 70.5936 49.4737 73.2072 49.6565C75.8407 49.8406 77.805 48.4142 78.6921 46.0503L78.9315 46.067C80.0089 46.1424 81.0575 46.0553 81.419 45.7598ZM73.4964 48.6743C72.5387 48.6073 72.1983 47.7414 72.2834 46.5244C72.3839 45.0879 72.7233 43.3875 73.1982 41.7566C73.5653 41.3813 74.3495 40.7745 75.2872 40.8401C76.0853 40.8959 76.5747 41.3512 76.6618 42.3998C75.9936 42.4934 75.5968 43.007 75.5494 43.6853C75.5034 44.3437 75.7065 44.8792 76.2386 45.2973C75.7168 47.0251 74.7733 48.7635 73.4964 48.6743ZM84.6149 50.4542C87.6675 50.6676 89.7279 48.7266 89.9689 47.8613C90.0738 47.5078 89.9453 47.3384 89.6859 47.3203C89.0886 48.1206 87.7977 49.0929 85.6629 48.9436C83.967 48.825 83.0105 47.5953 82.9954 46.0906C86.5529 45.6777 88.7314 44.6271 88.8584 42.8116C88.9296 41.7941 88.1855 40.6794 86.1505 40.5371C83.4969 40.3516 80.6542 42.298 80.4073 45.8294C80.219 48.5228 82.0013 50.2714 84.6149 50.4542ZM86.1007 41.5361C86.5196 41.5654 86.7794 41.8642 86.7501 42.2832C86.658 43.6 85.5554 44.7459 83.0809 45.1543C83.4748 42.6757 84.9634 41.4566 86.1007 41.5361ZM93.3778 43.0274C93.7163 41.6276 93.5758 41.0564 92.0395 40.9489C91.3013 40.8973 90.9895 41.056 90.9895 41.056C90.9895 41.056 91.1569 41.5288 90.8496 42.7704L87.6599 55.6994C87.3228 57.0792 87.4619 57.6704 88.9982 57.7778C89.7364 57.8294 90.0482 57.6708 90.0482 57.6708C90.0482 57.6708 89.8808 57.1979 90.1881 55.9564L91.6697 49.9651C92.1865 50.6027 92.958 51.0376 93.9157 51.1046C95.8509 51.2399 97.7911 49.8719 98.7436 47.4324C100.391 47.3872 101.766 46.3606 101.934 45.6707C101.995 45.3742 101.869 45.1649 101.61 45.1468C101.61 45.1468 100.576 46.4578 99.0272 46.53C99.1633 46.0182 99.2622 45.4638 99.304 44.8652C99.4491 42.7903 98.5237 41.4024 96.6682 41.2726C95.4113 41.1847 94.2368 41.9246 93.2928 43.3823L93.3778 43.0274ZM95.6793 45.0929C95.6333 45.7513 95.855 46.3082 96.3073 46.7207C95.676 48.5812 94.5093 49.7827 93.412 49.706C92.6139 49.6502 92.1858 49.1792 91.9557 48.7421L92.1484 47.9937C92.6344 46.2032 93.2754 45.0652 93.8968 44.2064C94.6505 43.1765 95.264 42.7182 95.8625 42.76C96.3812 42.7963 96.6995 43.1193 96.7717 43.806C96.1235 43.901 95.7254 44.4345 95.6793 45.0929ZM106.472 49.4765C106.361 51.0726 107.255 52.0374 108.632 52.1336C110.567 52.269 112.136 50.474 112.41 49.4306C112.495 49.0756 112.326 48.9035 112.067 48.8853C111.473 49.9264 110.529 50.522 109.851 50.4746C109.133 50.4244 108.832 49.842 109.116 48.6589L110.209 44.2043C110.546 42.8245 110.407 42.2333 108.871 42.1259C108.133 42.0743 107.821 42.2329 107.821 42.2329C107.821 42.2329 107.971 42.6644 107.715 43.7492C107.291 45.5039 106.284 47.5787 105.336 48.8156C104.761 49.5774 104.205 50.0798 103.766 50.0491C103.187 50.0086 102.944 49.4704 103.223 48.3471L104.343 43.7941C104.68 42.4143 104.541 41.8232 103.005 41.7157C102.267 41.6641 101.955 41.8227 101.955 41.8227C101.955 41.8227 102.122 42.2956 101.815 43.5372L101.005 46.8086C100.753 47.8335 100.646 48.5077 100.594 49.2459C100.498 50.6225 101.27 51.6188 102.607 51.7123C103.704 51.789 104.621 51.2918 105.539 50.2132C105.887 49.8165 106.221 49.3386 106.54 48.7995C106.5 49.0775 106.485 49.2969 106.472 49.4765ZM125.903 51.597C125.184 51.5468 124.925 50.9473 125.207 49.7841L125.883 47.0045C126.024 46.4129 126.145 45.8399 126.175 45.401C126.262 44.164 125.521 43.2902 124.264 43.2023C122.848 43.1033 121.534 44.3948 120.816 45.4874C120.827 45.3278 120.857 45.1895 120.867 45.0498C120.958 43.753 120.194 42.9177 118.937 42.8298C117.56 42.7335 116.288 44.0079 115.553 45.0592L115.667 44.5859C116.004 43.2061 115.865 42.615 114.328 42.5075C113.59 42.4559 113.278 42.6145 113.278 42.6145C113.278 42.6145 113.446 43.0874 113.138 44.329L111.654 50.3601C111.317 51.74 111.456 52.3311 112.992 52.4385C113.731 52.4901 114.042 52.3315 114.042 52.3315C114.042 52.3315 113.875 51.8587 114.182 50.6171C115.099 46.9722 116.839 44.4474 117.817 44.5158C118.296 44.5492 118.407 44.958 118.188 45.8048L116.961 50.7312C116.624 52.1111 116.763 52.7022 118.299 52.8096C119.038 52.8613 119.349 52.7026 119.349 52.7026C119.349 52.7026 119.182 52.2298 119.489 50.9882C120.346 47.6198 122.086 44.8143 123.104 44.8855C123.543 44.9162 123.72 45.2493 123.495 46.1759L122.962 48.344C122.794 49.0339 122.54 50.0788 122.504 50.5975C122.399 52.0939 123.247 53.1556 124.744 53.2603C126.599 53.39 128.211 51.558 128.462 50.553C128.547 50.1981 128.378 50.0259 128.119 50.0078C127.525 51.0489 126.701 51.6528 125.903 51.597ZM133.435 43.8436C130.942 43.6692 128.023 45.5502 127.774 49.1215C127.607 51.4957 129.047 53.5612 131.78 53.7523C133.775 53.8918 135.196 52.7882 135.395 51.9401C135.452 51.7034 135.341 51.5754 135.101 51.5586C135.101 51.5586 134.524 52.3603 133.167 52.2654C131.412 52.1427 130.454 50.9329 130.36 49.4027C133.01 49.0667 136.068 48.3382 136.222 46.1436C136.297 45.0662 135.57 43.9929 133.435 43.8436ZM133.446 44.8468C133.845 44.8747 134.15 45.0965 134.112 45.6352C134.024 46.8921 132.9 48.0566 130.426 48.4649C130.78 46.2643 132.149 44.7561 133.446 44.8468ZM145.006 54.6771C147.679 54.8641 149.693 53.3008 150.494 51.0311C152.085 50.9218 153.376 49.9495 153.543 49.2795C153.604 48.983 153.478 48.7738 153.219 48.7556C153.219 48.7556 152.229 50.0096 150.756 50.1472C150.817 49.8507 150.859 49.5329 150.881 49.2137C150.993 47.6176 150.381 46.3318 149.038 45.7567C151.756 44.1624 152.55 42.5538 152.649 41.1373C152.758 39.5811 152.01 38.5263 150.134 38.3952C148.319 38.2682 146.404 39.2771 144.828 41.4525C143.318 43.5523 141.813 46.4343 141.545 50.265C141.351 53.0382 142.672 54.5139 145.006 54.6771ZM145.255 53.6921C144.397 53.6321 143.916 53.0572 144.021 51.5608C144.106 50.3438 144.392 48.8401 144.838 47.3275C145.842 47.0168 146.839 46.8059 147.999 46.2854C148.201 46.5402 148.337 46.8905 148.381 47.4149C147.733 47.5099 147.334 48.0434 147.288 48.7018C147.241 49.3801 147.48 49.9783 147.992 50.395C147.412 52.3794 146.313 53.7661 145.255 53.6921ZM149.765 39.3718C150.164 39.3997 150.528 39.6457 150.483 40.2842C150.347 42.2394 148.289 45.0026 145.197 46.2098C145.53 45.1706 145.943 44.1369 146.392 43.1658C147.406 40.9912 148.847 39.3077 149.765 39.3718ZM158.084 53.0856C157.973 54.6817 158.868 55.6464 160.244 55.7427C162.18 55.878 163.749 54.0831 164.022 53.0396C164.107 52.6847 163.939 52.5125 163.679 52.4944C163.085 53.5355 162.141 54.1311 161.463 54.0837C160.745 54.0335 160.445 53.4511 160.728 52.268L161.821 47.8134C162.158 46.4335 162.019 45.8424 160.483 45.735C159.745 45.6834 159.433 45.842 159.433 45.842C159.433 45.842 159.583 46.2735 159.327 47.3583C158.904 49.113 157.896 51.1878 156.948 52.4247C156.373 53.1864 155.817 53.6889 155.378 53.6582C154.799 53.6177 154.556 53.0794 154.835 51.9562L155.956 47.4032C156.293 46.0234 156.154 45.4322 154.617 45.3248C153.879 45.2732 153.567 45.4318 153.567 45.4318C153.567 45.4318 153.735 45.9047 153.427 47.1462L152.617 50.4177C152.365 51.4426 152.258 52.1168 152.206 52.855C152.11 54.2316 152.882 55.2279 154.219 55.3214C155.316 55.3981 156.233 54.9009 157.151 53.8222C157.499 53.4256 157.833 52.9477 158.152 52.4086C158.112 52.6865 158.097 52.906 158.084 53.0856ZM173.029 48.2563C173.284 47.1914 173.588 46.8519 173.588 46.8519C173.588 46.8519 173.283 46.63 172.604 46.5826C171.627 46.5142 171.11 46.7387 170.74 47.4346C170.322 46.824 169.652 46.3761 168.654 46.3063C166.32 46.1431 163.58 48.0566 163.268 52.5058C163.105 54.8401 164.325 56.0281 165.961 56.1425C166.999 56.215 168.041 55.6463 168.926 54.4652L168.587 55.865C166.895 56.5486 165.816 57.0746 164.778 57.8642C163.742 58.6337 162.968 59.6623 162.886 60.8394C162.8 62.0764 163.618 62.9957 164.974 63.0905C167.927 63.297 169.962 60.8531 171.064 56.2788L171.121 56.0421C172.338 55.5459 173.644 54.9355 174.421 54.4285C174.841 54.1571 175.076 53.953 175.13 53.7562C175.211 53.4612 175.023 53.2876 174.783 53.2709C173.518 54.1648 171.405 54.8391 171.405 54.8391L173.029 48.2563ZM166.881 54.4625C166.143 54.4109 165.741 53.8415 165.819 52.7243C166.044 49.5121 167.721 47.6044 169.078 47.6993C169.836 47.7523 170.176 48.3375 170.328 48.749L170.083 49.6742C169.564 51.6428 168.297 54.5616 166.881 54.4625ZM164.867 61.7598C164.248 61.7166 163.976 61.3166 164.012 60.7978C164.061 60.0995 164.507 59.4491 165.338 58.7454C165.957 58.2072 166.915 57.6928 168.28 57.1065C167.458 60.2569 166.263 61.8575 164.867 61.7598ZM182.278 57.2835C184.952 57.4704 186.966 55.9071 187.766 53.6374C189.357 53.5281 190.648 52.5558 190.815 51.8858C190.876 51.5894 190.751 51.3801 190.491 51.362C190.491 51.362 189.501 52.616 188.028 52.7535C188.089 52.4571 188.131 52.1392 188.154 51.82C188.265 50.2239 187.653 48.9381 186.31 48.363C189.028 46.7687 189.822 45.1602 189.921 43.7436C190.03 42.1874 189.282 41.1327 187.406 41.0015C185.591 40.8746 183.676 41.8834 182.1 44.0588C180.59 46.1586 179.085 49.0407 178.818 52.8713C178.624 55.6445 179.944 57.1202 182.278 57.2835ZM182.527 56.2985C181.67 56.2385 181.189 55.6635 181.293 54.1672C181.378 52.9501 181.664 51.4464 182.11 49.9339C183.115 49.6231 184.112 49.4122 185.271 48.8918C185.474 49.1465 185.609 49.4969 185.653 50.0212C185.005 50.1162 184.607 50.6497 184.561 51.3081C184.513 51.9865 184.752 52.5846 185.264 53.0013C184.684 54.9857 183.585 56.3724 182.527 56.2985ZM187.037 41.9782C187.436 42.0061 187.8 42.252 187.756 42.8905C187.619 44.8457 185.561 47.6089 182.469 48.8162C182.803 47.7769 183.216 46.7432 183.665 45.7721C184.679 43.5976 186.12 41.914 187.037 41.9782ZM199.117 50.0806C199.392 49.0171 199.677 48.6761 199.677 48.6761C199.677 48.6761 199.371 48.4543 198.693 48.4069C197.715 48.3385 197.198 48.563 196.829 49.2589C196.411 48.6483 195.74 48.2004 194.743 48.1306C192.408 47.9674 189.668 49.8809 189.357 54.3301C189.194 56.6644 190.414 57.8524 192.05 57.9668C193.187 58.0463 194.339 57.3449 195.26 55.9257C195.259 57.3692 196.12 58.2514 197.437 58.3435C199.372 58.4788 200.941 56.6839 201.215 55.6404C201.3 55.2855 201.131 55.1133 200.872 55.0952C200.278 56.1363 199.334 56.7319 198.655 56.6844C197.937 56.6342 197.617 56.0505 197.92 54.8687L199.117 50.0806ZM192.969 56.2868C192.231 56.2352 191.83 55.6658 191.908 54.5485C192.133 51.3364 193.81 49.4287 195.167 49.5236C195.925 49.5766 196.265 50.1618 196.416 50.5733L196.171 51.4985C195.653 53.4671 194.386 56.3859 192.969 56.2868ZM216.925 56.2177C216.331 57.2588 215.387 57.8544 214.709 57.807C213.991 57.7568 213.691 57.1744 213.974 55.9913L215.067 51.5367C215.404 50.1569 215.265 49.5657 213.729 49.4583C212.991 49.4067 212.679 49.5653 212.679 49.5653C212.679 49.5653 212.851 49.9783 212.596 51.0431C212.052 53.3709 211.147 55.132 210.469 56.2274C209.927 57.0917 209.482 57.4415 209.023 57.4094C208.504 57.3731 208.276 56.9161 208.58 55.7144L209.7 51.1614C210.038 49.7816 209.898 49.1904 208.362 49.083C207.624 49.0314 207.312 49.19 207.312 49.19C207.312 49.19 207.484 49.603 207.229 50.6678C206.685 52.9956 205.78 54.7567 205.102 55.8521C204.56 56.7164 204.115 57.0662 203.656 57.0341C203.137 56.9978 202.909 56.5408 203.213 55.3391L204.334 50.7861C204.671 49.4063 204.532 48.8152 202.995 48.7077C202.257 48.6561 201.945 48.8147 201.945 48.8147C201.945 48.8147 202.113 49.2876 201.805 50.5292L200.995 53.8006C200.744 54.8056 200.636 55.4997 200.584 56.2379C200.488 57.6145 201.26 58.6108 202.597 58.7043C203.874 58.7936 204.66 58.1669 205.412 57.1569C205.611 56.8901 205.811 56.6034 205.972 56.3139L205.951 56.6132C205.855 57.9898 206.627 58.9861 207.964 59.0796C209.241 59.1689 210.026 58.5421 210.779 57.5322C210.978 57.2654 211.158 56.9773 211.339 56.6892L211.33 56.8089C211.219 58.405 212.114 59.3698 213.49 59.466C215.426 59.6014 216.995 57.8064 217.268 56.763C217.353 56.408 217.185 56.2359 216.925 56.2177ZM220.607 59.9637C222.941 60.1269 224.492 58.5913 225.727 56.1315C226.541 54.5243 226.748 54.1379 227.412 52.9613C227.916 52.0543 228.292 51.84 228.631 51.8637C229.01 51.8902 229.193 52.1436 229.168 52.5027C229.154 52.7022 229.058 52.936 228.941 53.1685L227.422 55.9693C227.122 56.5298 226.89 57.2754 226.853 57.7941C226.754 59.2107 227.39 60.438 229.226 60.5664C231.121 60.6989 232.89 58.9179 233.162 57.8944C233.244 57.5794 233.159 57.3529 232.82 57.3292C232.191 58.3077 231.382 58.9729 230.345 58.9004C229.387 58.8334 229.186 57.9773 229.783 56.8963L231.181 54.3877C231.433 53.9442 231.684 53.22 231.719 52.7212C231.8 51.564 231.14 50.6758 229.704 50.5754C228.726 50.507 227.882 50.8289 227.18 51.682C226.545 52.4596 225.958 53.6816 225.054 55.4228C224.104 57.261 223.131 58.5563 221.375 58.4335C220.098 58.3443 219.124 57.3739 219.167 55.6126C222.724 55.1998 224.903 54.1492 225.03 52.3336C225.101 51.3161 224.357 50.2015 222.322 50.0592C219.668 49.8736 216.826 51.8201 216.579 55.3514C216.39 58.0449 218.173 59.7935 220.607 59.9637ZM222.272 51.0581C222.691 51.0874 222.951 51.3863 222.922 51.8053C222.829 53.122 221.727 54.2679 219.252 54.6763C219.646 52.1977 221.135 50.9786 222.272 51.0581ZM238.4 51.1835C234.988 50.9449 232.695 53.3508 232.442 56.962C232.269 59.4359 233.732 60.8815 235.847 61.0294C239.339 61.2735 241.559 58.7623 241.805 55.2509C241.964 52.9764 240.734 51.3467 238.4 51.1835ZM235.26 55.956C236.026 53.0223 237.135 52.0774 238.132 52.1471C238.97 52.2057 239.402 52.9176 239.312 54.1944C239.277 54.6932 239.179 55.5284 238.989 56.2369C238.282 58.894 237.274 60.1267 236.116 60.0458C235.278 59.9872 234.848 59.2554 234.936 57.9984C234.971 57.4997 235.123 56.4678 235.26 55.956ZM252.513 52.3508C252.513 52.3508 252.562 53.076 251.818 55.1091L250.428 58.9414C250.059 59.918 249.714 60.2548 249.355 60.2297C249.096 60.2116 248.872 59.9754 248.9 59.5763C248.942 58.9778 249.297 58.4814 249.297 58.4814C249.297 58.4814 249.017 58.1811 248.379 58.1365C247.521 58.0765 246.771 58.7659 246.696 59.8432C246.619 60.9406 247.299 61.8301 248.436 61.9097C249.733 62.0003 250.651 61.2024 251.319 59.3846L252.677 55.7305L252.482 60.2478C252.431 61.5475 252.965 62.2264 253.883 62.2905C254.341 62.3226 254.727 62.2494 255.001 62.068C255.001 62.068 255.206 61.4208 255.712 60.4938L258.033 56.2654L257.581 58.1384C257.41 58.8682 257.297 59.6222 257.269 60.0212C257.157 61.6173 258.052 62.5821 259.429 62.6784C261.364 62.8137 262.933 61.0188 263.207 59.9753C263.292 59.6204 263.123 59.4482 262.864 59.4301C262.27 60.4712 261.326 61.0668 260.648 61.0193C259.929 60.9691 259.629 60.3868 259.913 59.2036L261.006 54.7491C261.343 53.3692 261.204 52.7781 259.668 52.6706C258.929 52.619 258.618 52.7777 258.618 52.7777C258.618 52.7777 258.469 53.469 257.668 54.8965L255.03 59.6441L255.308 53.9496C255.369 52.7911 254.78 52.3288 253.882 52.2661C253.243 52.2214 252.513 52.3508 252.513 52.3508ZM266.729 63.1888C269.781 63.4023 271.842 61.4613 272.083 60.596C272.188 60.2424 272.059 60.0731 271.8 60.0549C271.203 60.8552 269.912 61.8275 267.777 61.6782C266.081 61.5597 265.124 60.3299 265.109 58.8252C268.667 58.4124 270.845 57.3618 270.972 55.5462C271.043 54.5287 270.299 53.4141 268.264 53.2718C265.611 53.0862 262.768 55.0327 262.521 58.5641C262.333 61.2575 264.115 63.0061 266.729 63.1888ZM268.215 54.2707C268.634 54.3 268.893 54.5989 268.864 55.0179C268.772 56.3347 267.669 57.4805 265.195 57.8889C265.589 55.4103 267.077 54.1912 268.215 54.2707ZM280.859 62.4327C280.141 62.3825 279.842 61.7802 280.124 60.617L281.218 56.1624C281.555 54.7826 281.416 54.1914 279.879 54.084C279.141 54.0324 278.829 54.191 278.829 54.191C278.829 54.191 278.997 54.6638 278.689 55.9054L278.022 58.5654L274.83 58.3421L275.472 55.7606C275.809 54.3808 275.67 53.7896 274.133 53.6822C273.395 53.6306 273.083 53.7892 273.083 53.7892C273.083 53.7892 273.251 54.262 272.944 55.5036L271.459 61.5348C271.122 62.9146 271.261 63.5058 272.797 63.6132C273.536 63.6648 273.847 63.5062 273.847 63.5062C273.847 63.5062 273.68 63.0333 273.987 61.7918L274.581 59.3271L277.793 59.5518C277.595 60.38 277.509 61.0356 277.481 61.4346C277.369 63.0307 278.264 63.9955 279.641 64.0917C281.576 64.227 283.145 62.4321 283.419 61.3887C283.503 61.0337 283.335 60.8616 283.076 60.8434C282.482 61.8845 281.538 62.4801 280.859 62.4327ZM293.377 55.0278C290.484 54.8255 288.4 56.5243 287.669 59.2399L286.033 59.1255L286.675 56.544C287.012 55.1642 286.873 54.573 285.337 54.4656C284.598 54.414 284.287 54.5726 284.287 54.5726C284.287 54.5726 284.454 55.0454 284.147 56.287L282.662 62.3182C282.325 63.698 282.464 64.2892 284.001 64.3966C284.739 64.4482 285.051 64.2896 285.051 64.2896C285.051 64.2896 284.883 63.8167 285.191 62.5752L285.784 60.1105L287.48 60.2291C287.446 60.4272 287.433 60.6068 287.419 60.8063C287.246 63.2803 288.709 64.7258 290.824 64.8737C293.537 65.0635 295.486 63.5758 296.33 61.249C297.94 61.1611 299.272 60.1716 299.441 59.4817C299.502 59.1852 299.376 58.9759 299.117 58.9578C299.117 58.9578 298.106 60.2304 296.594 60.3452C296.682 59.9503 296.751 59.5342 296.782 59.0952C296.941 56.8208 295.711 55.1911 293.377 55.0278ZM293.186 58.904C293.14 59.5623 293.362 60.1192 293.834 60.5331C293.148 62.891 292.171 63.9654 291.093 63.8901C290.255 63.8315 289.825 63.0997 289.913 61.8428C289.948 61.344 290.1 60.3121 290.236 59.8004C291.003 56.8667 292.112 55.9217 293.109 55.9915C293.847 56.0431 294.268 56.6139 294.298 57.6184C293.63 57.712 293.234 58.2256 293.186 58.904Z" fill="white"/>
</g>
<path d="M307.572 77.8898C307.035 77.7616 306.495 78.0932 306.367 78.6304C306.239 79.1676 306.571 79.707 307.108 79.8352L307.572 77.8898ZM248.652 138.669C248.182 138.958 248.035 139.574 248.324 140.045L253.037 147.712C253.327 148.182 253.942 148.329 254.413 148.04C254.883 147.751 255.03 147.135 254.741 146.664L250.551 139.849L257.367 135.659C257.837 135.37 257.984 134.754 257.695 134.284C257.405 133.813 256.79 133.666 256.319 133.956L248.652 138.669ZM307.108 79.8352C324.573 84.0019 331.225 103.444 322.998 119.625C314.84 135.67 291.765 148.653 249.408 138.548L248.944 140.494C291.795 150.717 316.041 137.722 324.781 120.531C333.453 103.476 326.583 82.4253 307.572 77.8898L307.108 79.8352Z" fill="#1C1C1C"/>
<defs>
<filter id="filter0_d_480_15429" x="-1.34839" y="-1" width="342.617" height="108.81" filterUnits="userSpaceOnUse" color-interpolation-filters="sRGB">
<feFlood flood-opacity="0" result="BackgroundImageFix"/>
<feColorMatrix in="SourceAlpha" type="matrix" values="0 0 0 0 0 0 0 0 0 0 0 0 0 0 0 0 0 0 127 0" result="hardAlpha"/>
<feOffset dy="4"/>
<feGaussianBlur stdDeviation="10"/>
<feComposite in2="hardAlpha" operator="out"/>
<feColorMatrix type="matrix" values="0 0 0 0 0 0 0 0 0 0 0 0 0 0 0 0 0 0 0.06 0"/>
<feBlend mode="normal" in2="BackgroundImageFix" result="effect1_dropShadow_480_15429"/>
<feBlend mode="normal" in="SourceGraphic" in2="effect1_dropShadow_480_15429" result="shape"/>
</filter>
</defs>
</svg>
