<svg width="135" height="40" viewBox="0 0 135 40" fill="none" xmlns="http://www.w3.org/2000/svg">
<g clip-path="url(#clip0_420_8760)">
<path d="M130 0H5C3.67392 0 2.40215 0.526784 1.46447 1.46447C0.526784 2.40215 0 3.67392 0 5L0 35C0 36.3261 0.526784 37.5979 1.46447 38.5355C2.40215 39.4732 3.67392 40 5 40H130C131.326 40 132.598 39.4732 133.536 38.5355C134.473 37.5979 135 36.3261 135 35V5C135 3.67392 134.473 2.40215 133.536 1.46447C132.598 0.526784 131.326 0 130 0Z" fill="#1C1C1C"/>
<path d="M130 0.8C131.114 0.8 132.182 1.2425 132.97 2.03015C133.758 2.8178 134.2 3.88609 134.2 5V35C134.2 35.5516 134.092 36.0979 133.881 36.6076C133.67 37.1173 133.36 37.5804 132.97 37.9704C132.58 38.3605 132.117 38.6699 131.608 38.8808C131.098 39.0918 130.552 39.2003 130 39.2H5C3.88609 39.2 2.8178 38.7575 2.03015 37.9698C1.2425 37.1822 0.8 36.1139 0.8 35V5C0.8 3.88609 1.2425 2.8178 2.03015 2.03015C2.8178 1.2425 3.88609 0.8 5 0.8H130ZM130 0H5C3.67392 0 2.40215 0.526784 1.46447 1.46447C0.526784 2.40215 0 3.67392 0 5L0 35C0 36.3261 0.526784 37.5979 1.46447 38.5355C2.40215 39.4732 3.67392 40 5 40H130C131.326 39.9995 132.597 39.4725 133.535 38.535C134.473 37.5974 134.999 36.3259 135 35V5C134.999 3.67408 134.473 2.40262 133.535 1.46505C132.597 0.527485 131.326 0.00053005 130 0Z" fill="#A6A6A6"/>
<path d="M68.1393 21.7501C67.2996 21.754 66.4799 22.0067 65.7836 22.476C65.0873 22.9454 64.5457 23.6106 64.2271 24.3875C63.9085 25.1644 63.8272 26.0183 63.9934 26.8414C64.1596 27.6645 64.566 28.4199 65.1612 29.0123C65.7563 29.6047 66.5136 30.0075 67.3375 30.1698C68.1614 30.3322 69.0149 30.2469 69.7903 29.9246C70.5657 29.6024 71.2283 29.0576 71.6944 28.3592C72.1605 27.6607 72.4093 26.8398 72.4093 26.0001C72.4172 25.4381 72.3119 24.8803 72.0999 24.3598C71.8878 23.8393 71.5733 23.3667 71.1749 22.9702C70.7766 22.5737 70.3026 22.2614 69.7811 22.0518C69.2596 21.8422 68.7012 21.7396 68.1393 21.7501ZM68.1393 28.5801C67.6229 28.6162 67.1075 28.4961 66.6603 28.2355C66.213 27.9748 65.8545 27.5856 65.6313 27.1185C65.4082 26.6514 65.3307 26.128 65.409 25.6162C65.4873 25.1045 65.7177 24.6282 66.0703 24.2491C66.4229 23.8701 66.8813 23.6059 67.3861 23.4909C67.8908 23.3758 68.4185 23.4153 68.9005 23.6042C69.3825 23.793 69.7965 24.1225 70.0888 24.5498C70.3811 24.9771 70.538 25.4824 70.5393 26.0001C70.5554 26.3281 70.5057 26.656 70.393 26.9645C70.2804 27.273 70.1071 27.5558 69.8834 27.7963C69.6598 28.0367 69.3902 28.23 69.0906 28.3646C68.7911 28.4992 68.4676 28.5725 68.1393 28.5801ZM58.8293 21.7501C57.9892 21.7521 57.1684 22.003 56.4709 22.4712C55.7733 22.9394 55.2301 23.6038 54.9099 24.3806C54.5898 25.1574 54.5071 26.0116 54.6722 26.8353C54.8373 27.6591 55.2429 28.4154 55.8376 29.0088C56.4324 29.6022 57.1897 30.006 58.0138 30.1691C58.838 30.3323 59.692 30.2476 60.468 29.9256C61.244 29.6037 61.9072 29.0589 62.3737 28.3602C62.8403 27.6615 63.0893 26.8402 63.0893 26.0001C63.0972 25.4381 62.992 24.8803 62.7799 24.3598C62.5678 23.8393 62.2533 23.3667 61.8549 22.9702C61.4566 22.5737 60.9826 22.2614 60.4611 22.0518C59.9396 21.8422 59.3812 21.7396 58.8193 21.7501H58.8293ZM58.8293 28.5801C58.3126 28.6182 57.7964 28.5 57.3479 28.2406C56.8994 27.9813 56.5394 27.593 56.3146 27.1262C56.0899 26.6594 56.0109 26.1357 56.088 25.6234C56.165 25.1111 56.3945 24.6339 56.7466 24.2538C57.0987 23.8737 57.557 23.6085 58.062 23.4925C58.5669 23.3766 59.0951 23.4154 59.5776 23.6038C60.0602 23.7922 60.4749 24.1216 60.7677 24.549C61.0605 24.9764 61.2179 25.482 61.2193 26.0001C61.2354 26.3281 61.1857 26.656 61.073 26.9645C60.9604 27.273 60.7871 27.5558 60.5634 27.7963C60.3398 28.0367 60.0702 28.23 59.7706 28.3646C59.4711 28.4992 59.1476 28.5725 58.8193 28.5801H58.8293ZM47.7393 23.0601V24.8601H52.0593C51.9916 25.7079 51.6391 26.5079 51.0593 27.1301C50.627 27.5702 50.1074 27.915 49.5339 28.1424C48.9604 28.3697 48.3457 28.4745 47.7293 28.4501C47.0989 28.4501 46.4748 28.3259 45.8924 28.0847C45.3101 27.8435 44.7809 27.4899 44.3352 27.0442C43.8895 26.5985 43.5359 26.0693 43.2947 25.487C43.0535 24.9046 42.9293 24.2804 42.9293 23.6501C42.9293 23.0197 43.0535 22.3956 43.2947 21.8132C43.5359 21.2309 43.8895 20.7017 44.3352 20.256C44.7809 19.8103 45.3101 19.4567 45.8924 19.2155C46.4748 18.9742 47.0989 18.8501 47.7293 18.8501C48.9471 18.8302 50.1231 19.2941 50.9993 20.1401L52.2693 18.8701C51.6778 18.2711 50.972 17.797 50.1939 17.4758C49.4158 17.1545 48.5811 16.9928 47.7393 17.0001C46.8526 16.9692 45.9687 17.1172 45.1404 17.4353C44.3121 17.7533 43.5563 18.2349 42.9181 18.8512C42.2799 19.4676 41.7724 20.2062 41.4257 21.0229C41.079 21.8397 40.9004 22.7178 40.9004 23.6051C40.9004 24.4924 41.079 25.3705 41.4257 26.1873C41.7724 27.004 42.2799 27.7426 42.9181 28.359C43.5563 28.9753 44.3121 29.4569 45.1404 29.7749C45.9687 30.093 46.8526 30.241 47.7393 30.2101C48.5952 30.2488 49.4496 30.1037 50.2447 29.7846C51.0399 29.4655 51.7575 28.9797 52.3493 28.3601C53.397 27.209 53.9563 25.6959 53.9093 24.1401C53.9125 23.7611 53.879 23.3827 53.8093 23.0101L47.7393 23.0601ZM93.0493 24.4601C92.7885 23.6928 92.3008 23.0229 91.6508 22.5389C91.0008 22.055 90.2191 21.7799 89.4093 21.7501C88.8623 21.7492 88.321 21.8604 87.8187 22.0769C87.3164 22.2934 86.8639 22.6106 86.489 23.0089C86.1141 23.4072 85.8249 23.8782 85.6392 24.3926C85.4535 24.9071 85.3753 25.4542 85.4093 26.0001C85.3971 26.559 85.4978 27.1146 85.7052 27.6338C85.9125 28.1529 86.2224 28.625 86.6163 29.0217C87.0102 29.4184 87.4801 29.7316 87.9977 29.9427C88.5154 30.1537 89.0703 30.2583 89.6293 30.2501C90.3288 30.2539 91.0183 30.0841 91.6361 29.756C92.2539 29.4279 92.7807 28.9517 93.1693 28.3701L91.7193 27.3701C91.5029 27.7309 91.1965 28.0293 90.8301 28.2361C90.4638 28.443 90.05 28.5512 89.6293 28.5501C89.1961 28.5666 88.768 28.4524 88.4006 28.2223C88.0332 27.9923 87.7436 27.657 87.5693 27.2601L93.2593 24.9101L93.0493 24.4601ZM87.2493 25.8801C87.229 25.5708 87.2707 25.2605 87.3718 24.9675C87.4729 24.6745 87.6315 24.4046 87.8383 24.1737C88.045 23.9427 88.2957 23.7553 88.5758 23.6225C88.8559 23.4897 89.1596 23.4141 89.4693 23.4001C89.7919 23.3788 90.1136 23.4528 90.3945 23.6128C90.6754 23.7728 90.9031 24.0118 91.0493 24.3001L87.2493 25.8801ZM82.6293 30.0001H84.4993V17.5001H82.6293V30.0001ZM79.5693 22.7001H79.4993C79.2175 22.385 78.8722 22.133 78.4862 21.9607C78.1001 21.7883 77.682 21.6995 77.2593 21.7001C76.1665 21.7531 75.1359 22.2245 74.3813 23.0167C73.6266 23.8088 73.2056 24.861 73.2056 25.9551C73.2056 27.0492 73.6266 28.1014 74.3813 28.8935C75.1359 29.6857 76.1665 30.1571 77.2593 30.2101C77.6831 30.2172 78.1032 30.1314 78.4902 29.9586C78.8772 29.7858 79.2217 29.5303 79.4993 29.2101H79.5593V29.8201C79.5593 31.4501 78.6893 32.3201 77.2893 32.3201C76.823 32.3092 76.3705 32.1598 75.9894 31.8909C75.6083 31.622 75.3159 31.2457 75.1493 30.8101L73.5193 31.4901C73.8261 32.2365 74.3489 32.8741 75.0206 33.3213C75.6923 33.7686 76.4823 34.0049 77.2893 34.0001C79.4793 34.0001 81.2893 32.7101 81.2893 29.5701V22.0001H79.5693V22.7001ZM77.4293 28.5801C76.7842 28.5232 76.1839 28.2268 75.7466 27.7493C75.3092 27.2717 75.0667 26.6476 75.0667 26.0001C75.0667 25.3525 75.3092 24.7285 75.7466 24.2509C76.1839 23.7734 76.7842 23.4769 77.4293 23.4201C77.7491 23.4365 78.0624 23.5168 78.3507 23.6561C78.6391 23.7955 78.8966 23.9912 79.1081 24.2316C79.3197 24.472 79.481 24.7524 79.5825 25.0561C79.684 25.3598 79.7237 25.6808 79.6993 26.0001C79.7267 26.3208 79.6888 26.6438 79.5878 26.9494C79.4867 27.255 79.3248 27.537 79.1116 27.7782C78.8984 28.0194 78.6386 28.2148 78.3477 28.3527C78.0568 28.4905 77.741 28.5679 77.4193 28.5801H77.4293ZM101.809 17.5001H97.3393V30.0001H99.2093V25.2601H101.819C102.351 25.2963 102.885 25.2229 103.387 25.0443C103.889 24.8657 104.349 24.5858 104.739 24.222C105.128 23.8581 105.439 23.4181 105.651 22.9293C105.863 22.4404 105.973 21.9131 105.973 21.3801C105.973 20.8471 105.863 20.3198 105.651 19.8309C105.439 19.3421 105.128 18.902 104.739 18.5382C104.349 18.1744 103.889 17.8945 103.387 17.7159C102.885 17.5373 102.351 17.4639 101.819 17.5001H101.809ZM101.809 23.5001H99.1993V19.2401H101.849C102.273 19.2409 102.687 19.3673 103.04 19.6031C103.392 19.8389 103.666 20.1738 103.829 20.5654C103.991 20.957 104.033 21.3879 103.951 21.8037C103.869 22.2196 103.665 22.6017 103.366 22.9021C102.964 23.3041 102.418 23.53 101.849 23.5301L101.809 23.5001ZM113.339 21.7001C112.658 21.6591 111.981 21.8181 111.389 22.1575C110.797 22.4968 110.318 23.0017 110.009 23.6101L111.669 24.3001C111.833 23.9984 112.081 23.7509 112.383 23.5875C112.684 23.4242 113.027 23.3521 113.369 23.3801C113.727 23.3388 114.088 23.4055 114.408 23.5714C114.727 23.7373 114.99 23.9949 115.161 24.3111C115.275 24.5211 115.345 24.7521 115.369 24.9901V25.1201C114.769 24.8021 114.099 24.6372 113.419 24.6401C111.629 24.6401 109.819 25.6401 109.819 27.4501C109.838 27.8359 109.933 28.2142 110.099 28.5627C110.266 28.9113 110.5 29.2232 110.788 29.4801C111.077 29.7364 111.415 29.9321 111.781 30.0558C112.147 30.1794 112.534 30.2285 112.919 30.2001C113.39 30.2335 113.861 30.1397 114.284 29.9286C114.706 29.7175 115.063 29.3968 115.319 29.0001H115.379V30.0001H117.179V25.1901C117.179 23.0001 115.519 21.7301 113.389 21.7301L113.339 21.7001ZM113.109 28.5501C112.499 28.5501 111.649 28.2401 111.649 27.4901C111.649 26.4901 112.709 26.1601 113.649 26.1601C114.243 26.1454 114.83 26.2905 115.349 26.5801C115.286 27.1212 115.03 27.6213 114.627 27.9886C114.225 28.356 113.704 28.566 113.159 28.5801L113.109 28.5501ZM123.739 22.0001L121.599 27.4201H121.539L119.319 22.0001H117.319L120.649 29.5801L118.749 33.7901H120.699L125.819 22.0001H123.739ZM106.929 30.0001H108.799V17.5001H106.929V30.0001Z" fill="white"/>
<path d="M10.4399 7.53997C10.114 7.93108 9.94945 8.43177 9.9799 8.93997V31.06C9.94945 31.5682 10.114 32.0689 10.4399 32.46L10.5099 32.53L22.8999 20.15V19.86L10.5099 7.46997L10.4399 7.53997Z" fill="url(#paint0_linear_420_8760)"/>
<path d="M27.0004 24.2802L22.9004 20.1502V19.8602L27.0004 15.7202L27.0904 15.7702L32.0004 18.5602C33.4004 19.3502 33.4004 20.6502 32.0004 21.4502L27.1104 24.2302L27.0004 24.2802Z" fill="url(#paint1_linear_420_8760)"/>
<path d="M27.1195 24.22L22.8995 20L10.4395 32.46C10.7248 32.7109 11.0888 32.8541 11.4686 32.8651C11.8484 32.876 12.2201 32.754 12.5195 32.52L27.1295 24.22" fill="url(#paint2_linear_420_8760)"/>
<path d="M27.1197 15.78L12.5097 7.48005C12.2103 7.24606 11.8387 7.124 11.4589 7.13496C11.0791 7.14591 10.715 7.2892 10.4297 7.54005L22.8997 20L27.1197 15.78Z" fill="url(#paint3_linear_420_8760)"/>
<path opacity="0.2" d="M26.9995 24.1299L12.5095 32.3799C12.2207 32.5957 11.8699 32.7124 11.5095 32.7124C11.149 32.7124 10.7982 32.5957 10.5095 32.3799L10.4395 32.4499L10.5095 32.5199C10.7975 32.7373 11.1486 32.8549 11.5095 32.8549C11.8703 32.8549 12.2214 32.7373 12.5095 32.5199L27.1195 24.2199L26.9995 24.1299Z" fill="#1C1C1C"/>
<path opacity="0.12" d="M10.4399 32.32C10.114 31.9289 9.94945 31.4282 9.9799 30.92V31.07C9.94945 31.5782 10.114 32.0789 10.4399 32.47L10.5099 32.4L10.4399 32.32ZM31.9999 21.3L26.9999 24.13L27.0899 24.22L31.9999 21.44C32.2785 21.3091 32.5177 21.1071 32.6932 20.8543C32.8688 20.6014 32.9746 20.3068 32.9999 20C32.9437 20.2787 32.8243 20.5408 32.6509 20.7662C32.4776 20.9915 32.2549 21.1742 31.9999 21.3Z" fill="#1C1C1C"/>
<path opacity="0.25" d="M12.5107 7.61994L32.0007 18.6999C32.2557 18.8258 32.4784 19.0084 32.6517 19.2338C32.8251 19.4591 32.9445 19.7212 33.0007 19.9999C32.9754 19.6932 32.8696 19.3985 32.694 19.1457C32.5185 18.8929 32.2793 18.6908 32.0007 18.5599L12.5107 7.47994C11.1107 6.68994 9.9707 7.34994 9.9707 8.94994V9.09994C10.0007 7.48994 11.1207 6.82994 12.5107 7.61994Z" fill="white"/>
<path d="M42.1091 14.27H41.3691V12.27H41.9991C42.2864 11.9656 42.5033 11.6018 42.6347 11.2044C42.766 10.807 42.8085 10.3856 42.7591 9.96997V6.99997H46.7591V12.26H47.4291V14.26H46.6891V13H42.1091V14.27ZM43.4991 9.99997C43.5458 10.8066 43.3471 11.6085 42.9291 12.3H45.9291V7.73997H43.4991V9.99997ZM53.4091 12.22C52.8245 12.8013 52.0336 13.1276 51.2091 13.1276C50.3847 13.1276 49.5937 12.8013 49.0091 12.22C48.4409 11.6185 48.1243 10.8224 48.1243 9.99497C48.1243 9.16753 48.4409 8.37145 49.0091 7.76997C49.2973 7.47971 49.64 7.24935 50.0176 7.09214C50.3952 6.93494 50.8001 6.854 51.2091 6.854C51.6181 6.854 52.0231 6.93494 52.4007 7.09214C52.7783 7.24935 53.121 7.47971 53.4091 7.76997C53.9796 8.3703 54.2977 9.16682 54.2977 9.99497C54.2977 10.8231 53.9796 11.6196 53.4091 12.22ZM49.5791 11.72C50.0121 12.1511 50.5982 12.3931 51.2091 12.3931C51.8201 12.3931 52.4062 12.1511 52.8391 11.72C53.2664 11.249 53.503 10.6359 53.503 9.99997C53.503 9.36408 53.2664 8.75095 52.8391 8.27997C52.4062 7.84885 51.8201 7.6068 51.2091 7.6068C50.5982 7.6068 50.0121 7.84885 49.5791 8.27997C49.1519 8.75095 48.9152 9.36408 48.9152 9.99997C48.9152 10.6359 49.1519 11.249 49.5791 11.72ZM58.1791 13.13C57.7664 13.138 57.3562 13.0625 56.9734 12.9079C56.5905 12.7534 56.2429 12.5229 55.9514 12.2305C55.66 11.9381 55.4307 11.5898 55.2773 11.2065C55.124 10.8231 55.0498 10.4127 55.0591 9.99997C55.0496 9.58717 55.1237 9.17672 55.277 8.79332C55.4303 8.40993 55.6596 8.06152 55.9511 7.76908C56.2426 7.47665 56.5903 7.24623 56.9732 7.09171C57.3561 6.93719 57.7663 6.86176 58.1791 6.86997C58.5976 6.85961 59.0129 6.94421 59.3939 7.11741C59.775 7.29061 60.1118 7.5479 60.3791 7.86997L59.8391 8.38997C59.6416 8.13922 59.387 7.93938 59.0964 7.80717C58.8059 7.67495 58.4879 7.61419 58.1691 7.62997C57.8622 7.62199 57.5568 7.67637 57.2715 7.78981C56.9862 7.90326 56.7268 8.07341 56.5091 8.28997C56.0756 8.76377 55.8351 9.38273 55.8351 10.025C55.8351 10.6672 56.0756 11.2862 56.5091 11.76C56.7268 11.9765 56.9862 12.1467 57.2715 12.2601C57.5568 12.3736 57.8622 12.4279 58.1691 12.42C58.5211 12.4167 58.8679 12.3351 59.1844 12.1812C59.501 12.0272 59.7792 11.8048 59.9991 11.53L60.5391 12.07C60.2668 12.3999 59.9254 12.6661 59.5391 12.85C59.1123 13.0433 58.6477 13.139 58.1791 13.13ZM63.6791 13H62.9091V7.73997H61.2291V6.99997H65.3491V7.73997H63.6791V13ZM70.6491 6.99997L68.3791 12.06C68.2883 12.3593 68.1067 12.623 67.8595 12.8147C67.6123 13.0064 67.3117 13.1165 66.9991 13.13C66.7924 13.1273 66.5884 13.0831 66.3991 13L66.5991 12.29C66.7211 12.36 66.8591 12.399 66.9991 12.4C67.1461 12.411 67.2929 12.3761 67.4191 12.3C67.5396 12.198 67.6325 12.0673 67.6891 11.92L67.9091 11.44L65.9091 7.00997H66.8191L68.2991 10.45L69.7391 6.99997H70.6491ZM71.5191 13V6.99997H75.8591V13H75.0891V7.73997H72.2891V13H71.5191ZM77.2291 13V6.99997H77.9991V9.56997H80.9991V6.99997H81.7691V13H80.9991V10.29H77.9991V13H77.2291ZM88.0591 12.22C87.4745 12.8013 86.6836 13.1276 85.8591 13.1276C85.0347 13.1276 84.2438 12.8013 83.6591 12.22C83.0909 11.6185 82.7743 10.8224 82.7743 9.99497C82.7743 9.16753 83.0909 8.37145 83.6591 7.76997C83.9473 7.47971 84.29 7.24935 84.6676 7.09214C85.0452 6.93494 85.4501 6.854 85.8591 6.854C86.2681 6.854 86.6731 6.93494 87.0507 7.09214C87.4282 7.24935 87.771 7.47971 88.0591 7.76997C88.6296 8.3703 88.9477 9.16682 88.9477 9.99497C88.9477 10.8231 88.6296 11.6196 88.0591 12.22ZM84.2291 11.72C84.6621 12.1511 85.2482 12.3931 85.8591 12.3931C86.4701 12.3931 87.0562 12.1511 87.4891 11.72C87.9164 11.249 88.153 10.6359 88.153 9.99997C88.153 9.36408 87.9164 8.75095 87.4891 8.27997C87.0562 7.84885 86.4701 7.6068 85.8591 7.6068C85.2482 7.6068 84.6621 7.84885 84.2291 8.27997C83.8019 8.75095 83.5652 9.36408 83.5652 9.99997C83.5652 10.6359 83.8019 11.249 84.2291 11.72ZM92.0891 13V6.99997H94.2591C94.7097 6.99146 95.1464 7.1561 95.4791 7.45997C95.6462 7.60499 95.7794 7.78495 95.8693 7.98713C95.9591 8.18931 96.0035 8.40876 95.9991 8.62997C96.0038 8.89653 95.9271 9.15818 95.7791 9.37997C95.6323 9.5954 95.4279 9.7652 95.1891 9.86997C95.4791 9.96597 95.7331 10.147 95.9191 10.39C96.1111 10.635 96.2141 10.939 96.2091 11.25C96.2142 11.4805 96.1685 11.7093 96.0752 11.9202C95.9818 12.131 95.8432 12.3188 95.6691 12.47C95.3209 12.7912 94.8628 12.9665 94.3891 12.96L92.0891 13ZM92.8591 9.56997H94.2591C94.3899 9.57543 94.5203 9.55231 94.6411 9.50222C94.762 9.45214 94.8706 9.37629 94.9591 9.27997C95.0477 9.19969 95.1191 9.1024 95.1693 8.9939C95.2194 8.8854 95.2471 8.76792 95.2509 8.64846C95.2546 8.52901 95.2342 8.41002 95.191 8.2986C95.1477 8.18719 95.0825 8.08562 94.9991 7.99997C94.9156 7.90544 94.8122 7.83046 94.6964 7.78035C94.5807 7.73023 94.4553 7.7062 94.3291 7.70997H92.8991L92.8591 9.56997ZM92.8591 12.26H94.4091C94.5446 12.2645 94.6793 12.2391 94.8038 12.1855C94.9283 12.1319 95.0394 12.0515 95.1291 11.95C95.3055 11.7671 95.4056 11.524 95.4091 11.27C95.4091 11.0048 95.3038 10.7504 95.1162 10.5629C94.9287 10.3753 94.6744 10.27 94.4091 10.27H92.8891L92.8591 12.26Z" fill="white" stroke="white" stroke-width="0.2" stroke-miterlimit="10"/>
</g>
<defs>
<linearGradient id="paint0_linear_420_8760" x1="21.7999" y1="8.70997" x2="5.0199" y2="25.49" gradientUnits="userSpaceOnUse">
<stop stop-color="#00A0FF"/>
<stop offset="0.01" stop-color="#00A1FF"/>
<stop offset="0.26" stop-color="#00BEFF"/>
<stop offset="0.51" stop-color="#00D2FF"/>
<stop offset="0.76" stop-color="#00DFFF"/>
<stop offset="1" stop-color="#00E3FF"/>
</linearGradient>
<linearGradient id="paint1_linear_420_8760" x1="33.8304" y1="20.0002" x2="9.64039" y2="20.0002" gradientUnits="userSpaceOnUse">
<stop stop-color="#FFE000"/>
<stop offset="0.41" stop-color="#FFBD00"/>
<stop offset="0.78" stop-color="#FFA500"/>
<stop offset="1" stop-color="#FF9C00"/>
</linearGradient>
<linearGradient id="paint2_linear_420_8760" x1="24.8295" y1="22.3" x2="2.06945" y2="45.05" gradientUnits="userSpaceOnUse">
<stop stop-color="#FF3A44"/>
<stop offset="1" stop-color="#C31162"/>
</linearGradient>
<linearGradient id="paint3_linear_420_8760" x1="7.29969" y1="0.180048" x2="17.4597" y2="10.34" gradientUnits="userSpaceOnUse">
<stop stop-color="#32A071"/>
<stop offset="0.07" stop-color="#2DA771"/>
<stop offset="0.48" stop-color="#15CF74"/>
<stop offset="0.8" stop-color="#06E775"/>
<stop offset="1" stop-color="#00F076"/>
</linearGradient>
<clipPath id="clip0_420_8760">
<rect width="135" height="40" fill="white"/>
</clipPath>
</defs>
</svg>
