<svg width="148" height="50" viewBox="0 0 148 50" fill="none" xmlns="http://www.w3.org/2000/svg">
<path d="M16.9816 3.61447C17.7905 3.13049 18.4978 2.48269 19.0459 1.72321C19.2737 1.40729 19.4831 1.02488 19.3862 0.649927C19.2829 0.250506 18.843 -0.00106035 18.4236 3.36005e-06C18.0043 0.00106707 17.6114 0.205298 17.2787 0.456333C15.9162 1.48494 15.3675 3.43684 15.9995 5.0074L16.9811 3.61447H16.9816Z" fill="#E01E00"/>
<path d="M15.9148 5.47309C15.8867 4.8487 15.858 4.22377 15.8299 3.59938C15.7823 2.54843 15.6979 1.40548 14.9804 0.624724C14.8034 0.432193 14.5686 0.260936 14.3045 0.265723C14.0167 0.271042 13.7661 0.496015 13.666 0.76141C13.5659 1.0268 13.5914 1.32358 13.6606 1.59801C13.8608 2.39154 14.396 3.05635 14.9165 3.69405C15.6611 4.60617 16.4061 5.5183 17.1507 6.4299L15.9143 5.47256L15.9148 5.47309Z" fill="#E01E00"/>
<path d="M15.4088 31.8463C16.4786 34.0279 15.3731 36.6941 13.6957 38.4678C12.8251 39.3885 11.3501 40.1884 10.3539 39.4007C9.47465 38.7056 9.69975 37.3201 9.15108 36.3511C8.42276 35.0666 6.55166 34.9023 5.14589 35.4049C2.73369 36.2681 1.06117 38.5258 0.274957 40.9282C0.0547312 41.601 -0.107597 42.3286 0.087738 43.0088C0.283073 43.689 0.941586 44.2858 1.65475 44.1964C2.04596 44.1475 2.38469 43.9103 2.68066 43.6539C3.79532 42.6892 4.54852 41.3718 5.66426 40.4075C5.88232 40.2192 6.1269 40.0389 6.41368 39.9943C7.24155 39.8661 7.74693 40.8282 8.40436 41.3393C9.06396 41.852 10.0006 41.9185 10.8068 41.6834C11.6131 41.4478 12.3122 40.9484 12.9517 40.4112C15.4527 38.3109 17.3108 35.4799 18.2269 32.3744L15.4088 31.8452V31.8463Z" fill="#E01E00"/>
<path d="M30.1834 31.3624C27.8113 33 25.9521 35.3454 24.9169 38.0063C24.7092 38.5408 24.5311 39.1067 24.5874 39.6763C24.6437 40.2459 24.9857 40.8219 25.5376 41.0049C26.0797 41.1846 26.669 40.9575 27.176 40.6975C28.7219 39.9039 30.0692 38.7754 31.613 37.977C33.1562 37.1787 35.0392 36.7341 36.637 37.4202C37.3091 37.7085 37.9378 38.2669 37.9952 38.9854C38.0277 39.3944 37.8713 39.7949 37.6814 40.1598C36.8275 41.8027 35.2573 43.0201 33.5138 43.703C31.7704 44.3864 29.8593 44.5715 27.9833 44.5109C26.4823 44.4625 24.9673 44.2556 23.581 43.6881C23.0756 43.4812 22.5713 43.2121 22.2564 42.7722C21.5795 41.8266 22.0226 40.5055 22.6584 39.5327C23.2942 38.56 24.1324 37.6271 24.2362 36.4751C24.4024 34.6391 22.6384 33.1909 20.9004 32.4979L30.1829 31.3613L30.1834 31.3624Z" fill="#E01E00"/>
<path d="M20.816 34.6242C29.8637 34.6242 37.1982 27.6678 37.1982 19.0866C37.1982 10.5055 29.8637 3.54907 20.816 3.54907C11.7684 3.54907 4.43384 10.5055 4.43384 19.0866C4.43384 27.6678 11.7684 34.6242 20.816 34.6242Z" fill="#E01E00"/>
<path d="M26.7356 23.6287C28.8203 23.2703 30.1334 20.8617 29.6686 18.249C29.2037 15.6362 27.1368 13.8087 25.0521 14.167C22.9674 14.5254 21.6542 16.934 22.1191 19.5467C22.584 22.1595 24.6508 23.9871 26.7356 23.6287Z" fill="white"/>
<path d="M18.3059 25.1358C20.3906 24.7774 21.7038 22.3688 21.2389 19.7561C20.774 17.1433 18.7071 15.3158 16.6224 15.6741C14.5377 16.0325 13.2245 18.4411 13.6894 21.0538C14.1543 23.6666 16.2211 25.4941 18.3059 25.1358Z" fill="white"/>
<path d="M19.554 23.309C20.3238 23.1189 20.7388 22.1471 20.481 21.1383C20.2232 20.1295 19.3902 19.4658 18.6204 19.6559C17.8506 19.8459 17.4355 20.8178 17.6933 21.8266C17.9511 22.8353 18.7842 23.499 19.554 23.309Z" fill="#1C1C1C"/>
<path d="M27.6614 21.809C28.4312 21.6189 28.8462 20.6471 28.5885 19.6383C28.3307 18.6295 27.4976 17.9658 26.7278 18.1559C25.958 18.3459 25.543 19.3178 25.8008 20.3266C26.0585 21.3353 26.8916 21.999 27.6614 21.809Z" fill="#1C1C1C"/>
<path d="M6.04592 15.3498C6.12492 14.9844 6.22286 14.6227 6.33919 14.2669C6.39709 14.0893 6.45986 13.9127 6.52749 13.7377C6.55996 13.6537 6.59297 13.5702 6.62705 13.4872C6.64437 13.4457 6.66168 13.4042 6.679 13.3628C6.65952 13.409 6.68874 13.341 6.69036 13.3372C6.70227 13.3096 6.71471 13.2825 6.72662 13.2548C7.03179 12.5703 7.40731 11.9156 7.84506 11.3045C7.9062 11.2189 7.96897 11.1343 8.03282 11.0503C8.06474 11.0082 8.09667 10.9668 8.12913 10.9253C8.09883 10.9636 8.14482 10.9051 8.14699 10.9029C8.16593 10.8795 8.18432 10.8561 8.20326 10.8327C8.33583 10.6689 8.47327 10.5094 8.61504 10.353C8.69999 10.2594 8.71568 10.1052 8.61504 10.0147C8.52251 9.93125 8.36126 9.91476 8.2709 10.0147C7.7482 10.5902 7.2834 11.2173 6.88948 11.8842C6.49557 12.5512 6.17362 13.2527 5.92309 13.9797C5.78295 14.3871 5.66769 14.802 5.57625 15.2221C5.54973 15.3444 5.61304 15.4864 5.74615 15.5168C5.86844 15.5444 6.01724 15.4806 6.04592 15.3498Z" fill="white"/>
<path d="M7.677 35.882C6.74036 35.74 5.75882 35.9559 4.99425 36.5154C4.89253 36.5899 4.8303 36.726 4.90713 36.843C4.97207 36.9419 5.13115 37.009 5.24045 36.9287C5.41414 36.8015 5.59974 36.6914 5.79507 36.6005C5.81888 36.5893 5.84215 36.5787 5.86595 36.5686C5.87624 36.5643 5.88652 36.5595 5.8968 36.5553C5.87299 36.5649 5.87407 36.5643 5.90058 36.5537C5.94874 36.5345 5.99744 36.5159 6.04668 36.4984C6.14841 36.4628 6.2523 36.4319 6.35727 36.4058C6.46224 36.3798 6.5683 36.359 6.67543 36.3431C6.6803 36.3426 6.75335 36.3335 6.69924 36.3394C6.729 36.3362 6.75822 36.3324 6.78798 36.3298C6.83992 36.325 6.89187 36.3207 6.94436 36.3186C7.04879 36.3133 7.15322 36.3133 7.25711 36.3176C7.30905 36.3197 7.36154 36.3234 7.41348 36.3282C7.44324 36.3308 7.47301 36.3346 7.50222 36.3378C7.53144 36.3415 7.53198 36.3415 7.50385 36.3378C7.51846 36.3399 7.53361 36.342 7.54822 36.3441C7.67375 36.3633 7.81606 36.3128 7.84798 36.1771C7.8745 36.0628 7.81227 35.9032 7.67808 35.8825L7.677 35.882Z" fill="white"/>
<path d="M35.9956 38.5928C36.0238 38.596 36.0211 38.5955 35.988 38.5912C36.0005 38.5933 36.0135 38.5955 36.0259 38.5976C36.0508 38.6024 36.0762 38.6082 36.1006 38.6146C36.1249 38.621 36.1498 38.6284 36.1736 38.637C36.1855 38.6412 36.1974 38.6455 36.2099 38.6502C36.1812 38.638 36.1796 38.6375 36.205 38.6481C36.2456 38.6673 36.2851 38.6869 36.3235 38.7103C36.3457 38.7236 36.3663 38.7385 36.3879 38.7518C36.4096 38.7678 36.409 38.7667 36.3847 38.7486C36.3949 38.7566 36.4047 38.7646 36.4144 38.7726C36.4534 38.805 36.4907 38.8406 36.5248 38.8779C36.5378 38.8922 36.5497 38.9066 36.5621 38.921C36.5226 38.8758 36.5746 38.9385 36.5811 38.9486C36.6098 38.9906 36.633 39.0348 36.6574 39.0795C36.6687 39.1039 36.6682 39.1023 36.6563 39.0741C36.6612 39.0858 36.666 39.0975 36.6704 39.1092C36.6779 39.13 36.685 39.1507 36.6915 39.172C36.698 39.1933 36.7034 39.2151 36.7082 39.2369C36.7109 39.2491 36.7223 39.3321 36.7153 39.2677C36.7207 39.3188 36.7234 39.3693 36.7218 39.4209C36.7207 39.4464 36.7185 39.472 36.7164 39.4975C36.712 39.5491 36.7266 39.4549 36.7142 39.5097C36.7028 39.5597 36.6926 39.6097 36.6763 39.6586C36.6682 39.6831 36.659 39.707 36.6498 39.731C36.672 39.6746 36.6395 39.7512 36.6341 39.7613C36.6136 39.8012 36.5903 39.84 36.5649 39.8772C36.5584 39.8868 36.5064 39.9506 36.5448 39.906C36.5281 39.9256 36.5113 39.9448 36.4934 39.9634C36.4756 39.982 36.4572 40.0001 36.4377 40.0171C36.4296 40.0246 36.3636 40.0761 36.4117 40.0405C36.3105 40.1155 36.2472 40.2506 36.3246 40.3681C36.389 40.4665 36.5492 40.5346 36.6579 40.4538C36.9977 40.2011 37.2071 39.815 37.2093 39.3922C37.2115 38.9694 36.9864 38.5891 36.6417 38.3439C36.4518 38.2088 36.2272 38.137 35.9956 38.1141C35.8685 38.1014 35.7467 38.2333 35.7521 38.3535C35.7586 38.4939 35.8593 38.579 35.9956 38.5928Z" fill="white"/>
<path d="M52.7524 23.3583L48.4685 33.1839H47.7716L48.202 32.0432L44.1641 23.3583H40.9255L45.6604 33.1439C46.1113 34.1845 46.8082 34.5447 47.9356 34.6047L49.0219 37.4063H45.2914V39.6275H52.9164L50.9282 34.7848L55.8475 23.3583H52.7524Z" fill="white"/>
<path d="M64.736 23.1382C61.1285 23.1382 57.1726 25.1994 57.1726 29.0615C57.1726 32.7036 60.7186 34.9449 64.6335 34.9449C68.487 34.9449 71.9715 32.7837 71.9715 29.0615C71.9715 25.0393 68.2001 23.1382 64.736 23.1382ZM60.2267 29.0215C60.2267 27.0804 61.7025 24.8592 64.654 24.8592C67.3597 24.8592 68.897 26.7402 68.897 29.0215C68.897 31.4829 67.1342 33.344 64.5926 33.344C62.0304 33.344 60.2267 31.4629 60.2267 29.0215Z" fill="white"/>
<path d="M81.43 23.1382C77.8225 23.1382 73.8666 25.1994 73.8666 29.0615C73.8666 32.7036 77.4126 34.9449 81.3275 34.9449C85.181 34.9449 88.6655 32.7837 88.6655 29.0615C88.6655 25.0393 84.894 23.1382 81.43 23.1382ZM76.9206 29.0215C76.9206 27.0804 78.3964 24.8592 81.348 24.8592C84.0537 24.8592 85.5909 26.7402 85.5909 29.0215C85.5909 31.4829 83.8282 33.344 81.2865 33.344C78.7244 33.344 76.9206 31.4629 76.9206 29.0215Z" fill="white"/>
<path d="M90.704 33.2039C90.704 34.1644 91.4214 34.8048 92.4873 34.8048C93.5531 34.8048 94.2705 34.1644 94.2705 33.2039C94.2705 32.2233 93.5531 31.583 92.4873 31.583C91.4214 31.583 90.704 32.2233 90.704 33.2039Z" fill="white"/>
<path d="M96.1824 31.0627C96.1824 33.464 98.642 34.8248 101.163 34.8248C103.09 34.8248 105.857 34.0444 107.23 31.0427L107.845 31.3629C107.64 31.663 107.251 32.8437 107.251 33.4841C107.251 33.9443 107.538 34.6447 108.194 34.6447L108.583 34.6247V34.6447H112.191V32.4034H110.161V28.6213C110.161 24.9392 108.419 23.3583 104.525 23.3583H97.4327L97.4532 25.5195H103.438C106.082 25.5195 107.087 26.34 107.087 28.3411C107.087 28.6613 107.107 29.4618 107.087 29.822C105.693 28.9215 103.664 27.7408 100.979 27.7408C98.4781 27.7408 96.1824 28.7414 96.1824 31.0627ZM99.2569 31.1027C99.2569 29.5018 101.204 29.2216 102.086 29.2216C104.156 29.2216 106.513 30.7225 106.513 30.7225C106.513 30.7225 105.263 33.1038 102.332 33.1038C100.774 33.1038 99.2569 32.4235 99.2569 31.1027Z" fill="white"/>
<path d="M123.013 34.8248C126.231 34.8248 129.244 32.8837 129.244 28.9815C129.244 25.1193 126.313 23.1782 123.095 23.1782C120.492 23.1782 117.909 24.4589 116.925 25.9998H116.228L117.151 24.659V23.3583H114.076V39.6275H117.151V33.1839L116.187 31.1627H116.823C117.848 33.1639 120.061 34.8248 123.013 34.8248ZM121.926 24.9192C124.796 24.9192 126.169 26.36 126.169 28.8014C126.169 31.1627 124.878 32.7636 122.008 32.7636C118.852 32.7636 117.171 30.8225 117.171 28.6813C117.171 26.42 119.016 24.9192 121.926 24.9192Z" fill="white"/>
<path d="M140.828 34.8248C144.046 34.8248 147.059 32.8837 147.059 28.9815C147.059 25.1193 144.128 23.1782 140.91 23.1782C138.307 23.1782 135.724 24.4589 134.74 25.9998H134.043L134.966 24.659V23.3583H131.891V39.6275H134.966V33.1839L134.002 31.1627H134.638C135.662 33.1639 137.876 34.8248 140.828 34.8248ZM139.741 24.9192C142.611 24.9192 143.984 26.36 143.984 28.8014C143.984 31.1627 142.693 32.7636 139.823 32.7636C136.667 32.7636 134.986 30.8225 134.986 28.6813C134.986 26.42 136.831 24.9192 139.741 24.9192Z" fill="white"/>
</svg>
