<svg width="100" height="34" viewBox="0 0 100 34" fill="none" xmlns="http://www.w3.org/2000/svg">
<g clip-path="url(#clip0_367_8100)">
<path d="M11.6202 2.45784C12.1737 2.12873 12.6576 1.68823 13.0326 1.17178C13.1885 0.95695 13.3318 0.696917 13.2655 0.441947C13.1948 0.17034 12.8938 -0.00072485 12.6069 -1.52986e-06C12.3199 0.00072179 12.0512 0.139599 11.8235 0.310303C10.8913 1.00975 10.5159 2.33704 10.9483 3.40503L11.6199 2.45784H11.6202Z" fill="#E01E00"/>
<path d="M10.8888 3.72184C10.8695 3.29725 10.8499 2.8723 10.8307 2.44771C10.7981 1.73307 10.7403 0.955867 10.2494 0.42495C10.1284 0.294029 9.96768 0.177575 9.78701 0.18083C9.59005 0.184446 9.41864 0.337429 9.35014 0.517897C9.28165 0.698365 9.29905 0.900171 9.34644 1.08679C9.48342 1.62638 9.84957 2.07846 10.2057 2.51209C10.7152 3.13234 11.225 3.75258 11.7344 4.37247L10.8884 3.72148L10.8888 3.72184Z" fill="#E01E00"/>
<path d="M10.5427 21.6555C11.2746 23.139 10.5183 24.952 9.37059 26.1581C8.77491 26.7842 7.76568 27.3281 7.0841 26.7925C6.48249 26.3198 6.6365 25.3777 6.26109 24.7187C5.76277 23.8453 4.48254 23.7336 3.52071 24.0753C1.87025 24.6623 0.725895 26.1976 0.187961 27.8312C0.0372806 28.2887 -0.0737862 28.7834 0.0598642 29.246C0.193515 29.7085 0.644076 30.1143 1.13203 30.0536C1.3997 30.0203 1.63146 29.859 1.83397 29.6847C2.59663 29.0286 3.11198 28.1328 3.87538 27.4771C4.02458 27.3491 4.19192 27.2265 4.38814 27.1961C4.95458 27.1089 5.30037 27.7632 5.75019 28.1107C6.20149 28.4594 6.84234 28.5046 7.39398 28.3447C7.94561 28.1845 8.42394 27.8449 8.86154 27.4796C10.5727 26.0514 11.8441 24.1263 12.4708 22.0146L10.5427 21.6547V21.6555Z" fill="#E01E00"/>
<path d="M20.6521 21.3264C19.029 22.4399 17.7569 24.0348 17.0487 25.8442C16.9065 26.2077 16.7847 26.5925 16.8232 26.9798C16.8617 27.3672 17.0957 27.7588 17.4733 27.8832C17.8443 28.0055 18.2475 27.8511 18.5944 27.6742C19.6521 27.1346 20.574 26.3672 21.6302 25.8243C22.6861 25.2815 23.9745 24.9791 25.0677 25.4457C25.5275 25.6417 25.9577 26.0214 25.997 26.51C26.0192 26.7881 25.9122 27.0605 25.7823 27.3086C25.198 28.4257 24.1237 29.2536 22.9308 29.7179C21.7379 30.1827 20.4303 30.3085 19.1468 30.2673C18.1198 30.2344 17.0831 30.0937 16.1346 29.7078C15.7888 29.5671 15.4438 29.3841 15.2283 29.085C14.7652 28.442 15.0684 27.5436 15.5034 26.8822C15.9384 26.2207 16.5119 25.5863 16.583 24.803C16.6966 23.5545 15.4897 22.5697 14.3005 22.0985L20.6517 21.3256L20.6521 21.3264Z" fill="#E01E00"/>
<path d="M14.2421 23.5444C20.4326 23.5444 25.4509 18.8141 25.4509 12.9789C25.4509 7.14371 20.4326 2.41336 14.2421 2.41336C8.05158 2.41336 3.0332 7.14371 3.0332 12.9789C3.0332 18.8141 8.05158 23.5444 14.2421 23.5444Z" fill="#E01E00"/>
<path d="M18.2934 16.0674C19.7198 15.8237 20.6183 14.1859 20.3002 12.4092C19.9821 10.6325 18.568 9.38978 17.1416 9.63347C15.7152 9.87716 14.8167 11.515 15.1348 13.2917C15.4528 15.0683 16.867 16.3111 18.2934 16.0674Z" fill="white"/>
<path d="M12.5256 17.0922C13.952 16.8485 14.8505 15.2107 14.5324 13.434C14.2143 11.6573 12.8001 10.4146 11.3737 10.6583C9.94734 10.902 9.04887 12.5398 9.36694 14.3165C9.68502 16.0932 11.0992 17.3359 12.5256 17.0922Z" fill="white"/>
<path d="M13.3795 15.8501C13.9062 15.7209 14.1902 15.06 14.0139 14.374C13.8375 13.6881 13.2675 13.2368 12.7408 13.366C12.2141 13.4952 11.9301 14.1561 12.1065 14.8421C12.2829 15.528 12.8528 15.9793 13.3795 15.8501Z" fill="#E01E00"/>
<path d="M18.9264 14.8301C19.4531 14.7009 19.7371 14.04 19.5607 13.354C19.3843 12.6681 18.8144 12.2168 18.2877 12.346C17.761 12.4752 17.477 13.1361 17.6534 13.8221C17.8297 14.508 18.3997 14.9593 18.9264 14.8301Z" fill="#E01E00"/>
<path d="M4.13621 10.4379C4.19026 10.1894 4.25727 9.94347 4.33687 9.70152C4.37648 9.58073 4.41943 9.46066 4.4657 9.34167C4.48792 9.28453 4.5105 9.22775 4.53382 9.17133C4.54567 9.14312 4.55752 9.11491 4.56937 9.0867C4.55604 9.11817 4.57603 9.07187 4.57714 9.06934C4.58529 9.05054 4.5938 9.03209 4.60195 9.01329C4.81075 8.54783 5.06769 8.10263 5.3672 7.68708C5.40903 7.62885 5.45198 7.57135 5.49566 7.51421C5.51751 7.48563 5.53935 7.45742 5.56156 7.42922C5.54083 7.45525 5.5723 7.41547 5.57378 7.41403C5.58674 7.39811 5.59933 7.3822 5.61228 7.36629C5.70299 7.2549 5.79702 7.1464 5.89402 7.04007C5.95215 6.97642 5.96288 6.87154 5.89402 6.81005C5.83071 6.75327 5.72039 6.74206 5.65856 6.81005C5.30093 7.20137 4.9829 7.62777 4.71338 8.08129C4.44386 8.53481 4.22358 9.01184 4.05216 9.50623C3.95628 9.78326 3.87742 10.0654 3.81485 10.3511C3.79671 10.4342 3.84003 10.5308 3.9311 10.5514C4.01477 10.5702 4.11658 10.5268 4.13621 10.4379Z" fill="white"/>
<path d="M5.25264 24.3997C4.61179 24.3032 3.94021 24.45 3.41708 24.8305C3.34748 24.8811 3.3049 24.9737 3.35747 25.0533C3.4019 25.1205 3.51075 25.1661 3.58553 25.1115C3.70437 25.0251 3.83136 24.9502 3.96501 24.8883C3.9813 24.8808 3.99722 24.8735 4.01351 24.8666C4.02054 24.8638 4.02758 24.8605 4.03461 24.8576C4.01832 24.8641 4.01906 24.8638 4.0372 24.8565C4.07015 24.8435 4.10347 24.8308 4.13716 24.8189C4.20677 24.7947 4.27785 24.7737 4.34967 24.756C4.42149 24.7383 4.49406 24.7242 4.56736 24.7133C4.57069 24.7129 4.62067 24.7068 4.58365 24.7108C4.60401 24.7086 4.62401 24.7061 4.64437 24.7043C4.67991 24.701 4.71545 24.6981 4.75136 24.6967C4.82282 24.693 4.89427 24.693 4.96535 24.6959C5.00089 24.6974 5.0368 24.6999 5.07235 24.7032C5.09271 24.705 5.11307 24.7075 5.13306 24.7097C5.15305 24.7122 5.15342 24.7122 5.13417 24.7097C5.14417 24.7111 5.15454 24.7126 5.16453 24.714C5.25042 24.727 5.34779 24.6927 5.36963 24.6005C5.38778 24.5227 5.3452 24.4142 5.25338 24.4001L5.25264 24.3997Z" fill="white"/>
<path d="M24.6277 26.2431C24.6469 26.2453 24.6451 26.2449 24.6225 26.242C24.631 26.2435 24.6399 26.2449 24.6484 26.2464C24.6654 26.2496 24.6828 26.2536 24.6995 26.2579C24.7161 26.2623 24.7332 26.2674 24.7495 26.2731C24.7576 26.276 24.7658 26.2789 24.7743 26.2822C24.7546 26.2739 24.7535 26.2735 24.7709 26.2807C24.7987 26.2938 24.8257 26.3071 24.852 26.323C24.8672 26.3321 24.8813 26.3422 24.8961 26.3513C24.9109 26.3621 24.9105 26.3614 24.8938 26.3491C24.9009 26.3545 24.9075 26.3599 24.9142 26.3654C24.9409 26.3874 24.9664 26.4117 24.9897 26.437C24.9986 26.4467 25.0068 26.4565 25.0153 26.4663C24.9883 26.4355 25.0238 26.4782 25.0282 26.4851C25.0479 26.5136 25.0638 26.5437 25.0804 26.574C25.0882 26.5907 25.0878 26.5896 25.0797 26.5704C25.083 26.5784 25.0864 26.5863 25.0893 26.5943C25.0945 26.6084 25.0993 26.6225 25.1038 26.637C25.1082 26.6514 25.1119 26.6663 25.1152 26.6811C25.1171 26.6894 25.1249 26.7458 25.1201 26.7021C25.1238 26.7368 25.1256 26.7711 25.1245 26.8062C25.1238 26.8236 25.1223 26.8409 25.1208 26.8583C25.1178 26.8934 25.1278 26.8294 25.1193 26.8666C25.1115 26.9006 25.1045 26.9346 25.0934 26.9679C25.0878 26.9845 25.0816 27.0008 25.0753 27.0171C25.0904 26.9787 25.0682 27.0308 25.0645 27.0377C25.0505 27.0648 25.0345 27.0912 25.0171 27.1165C25.0127 27.123 24.9771 27.1664 25.0034 27.1361C24.992 27.1494 24.9805 27.1625 24.9683 27.1751C24.956 27.1878 24.9435 27.2001 24.9301 27.2116C24.9246 27.2167 24.8794 27.2518 24.9124 27.2276C24.8431 27.2786 24.7998 27.3704 24.8528 27.4503C24.8968 27.5172 25.0064 27.5635 25.0808 27.5086C25.3133 27.3368 25.4566 27.0742 25.4581 26.7867C25.4595 26.4992 25.3055 26.2406 25.0697 26.0739C24.9398 25.982 24.7861 25.9332 24.6277 25.9176C24.5407 25.9089 24.4574 25.9986 24.4611 26.0804C24.4655 26.1759 24.5344 26.2337 24.6277 26.2431Z" fill="white"/>
</g>
<path d="M35.8716 15.8837L32.9586 22.5651H32.4847L32.7774 21.7895L30.0316 15.8837H27.8293L31.049 22.5379C31.3557 23.2455 31.8296 23.4904 32.5962 23.5313L33.3349 25.4363H30.7982V26.9468H35.9831L34.6311 23.6537L37.9763 15.8837H35.8716Z" fill="#1C1C1C"/>
<path d="M44.0205 15.734C41.5674 15.734 38.8773 17.1356 38.8773 19.7619C38.8773 22.2385 41.2886 23.7626 43.9508 23.7626C46.5712 23.7626 48.9406 22.293 48.9406 19.7619C48.9406 17.0268 46.376 15.734 44.0205 15.734ZM40.9541 19.7347C40.9541 18.4148 41.9577 16.9043 43.9647 16.9043C45.8046 16.9043 46.8499 18.1834 46.8499 19.7347C46.8499 21.4085 45.6512 22.674 43.9229 22.674C42.1807 22.674 40.9541 21.3948 40.9541 19.7347Z" fill="#1C1C1C"/>
<path d="M55.3724 15.734C52.9193 15.734 50.2292 17.1356 50.2292 19.7619C50.2292 22.2385 52.6405 23.7626 55.3027 23.7626C57.9231 23.7626 60.2925 22.293 60.2925 19.7619C60.2925 17.0268 57.7279 15.734 55.3724 15.734ZM52.306 19.7347C52.306 18.4148 53.3096 16.9043 55.3166 16.9043C57.1565 16.9043 58.2018 18.1834 58.2018 19.7347C58.2018 21.4085 57.0031 22.674 55.2748 22.674C53.5326 22.674 52.306 21.3948 52.306 19.7347Z" fill="#1C1C1C"/>
<path d="M61.6787 22.5787C61.6787 23.2319 62.1665 23.6673 62.8913 23.6673C63.6161 23.6673 64.1039 23.2319 64.1039 22.5787C64.1039 21.9119 63.6161 21.4765 62.8913 21.4765C62.1665 21.4765 61.6787 21.9119 61.6787 22.5787Z" fill="#1C1C1C"/>
<path d="M65.404 21.1227C65.404 22.7556 67.0766 23.6809 68.7909 23.6809C70.1011 23.6809 71.9828 23.1502 72.9166 21.1091L73.3348 21.3268C73.1954 21.5309 72.9305 22.3338 72.9305 22.7692C72.9305 23.0822 73.1257 23.5585 73.5717 23.5585L73.8365 23.5449V23.5585H76.2896V22.0344H74.9098V19.4625C74.9098 16.9587 73.725 15.8837 71.0768 15.8837H66.2542L66.2682 17.3534H70.3381C72.1361 17.3534 72.819 17.9113 72.819 19.272C72.819 19.4898 72.833 20.0341 72.819 20.279C71.8713 19.6667 70.4914 18.8638 68.6655 18.8638C66.9651 18.8638 65.404 19.5442 65.404 21.1227ZM67.4947 21.1499C67.4947 20.0613 68.8188 19.8708 69.4182 19.8708C70.8259 19.8708 72.4288 20.8914 72.4288 20.8914C72.4288 20.8914 71.5786 22.5107 69.5854 22.5107C68.5261 22.5107 67.4947 22.048 67.4947 21.1499Z" fill="#1C1C1C"/>
<path d="M83.6487 23.6809C85.837 23.6809 87.8859 22.361 87.8859 19.7075C87.8859 17.0812 85.8927 15.7612 83.7045 15.7612C81.9343 15.7612 80.1781 16.6321 79.5091 17.6799H79.0352L79.6624 16.7682V15.8837H77.5717V26.9468H79.6624V22.5651L79.0073 21.1907H79.4394C80.1363 22.5515 81.6416 23.6809 83.6487 23.6809ZM82.91 16.9451C84.8613 16.9451 85.7952 17.9249 85.7952 19.585C85.7952 21.1907 84.9171 22.2793 82.9657 22.2793C80.8193 22.2793 79.6764 20.9594 79.6764 19.5034C79.6764 17.9657 80.9308 16.9451 82.91 16.9451Z" fill="#1C1C1C"/>
<path d="M95.7629 23.6809C97.9511 23.6809 100 22.361 100 19.7075C100 17.0812 98.0069 15.7612 95.8186 15.7612C94.0485 15.7612 92.2923 16.6321 91.6232 17.6799H91.1494L91.7766 16.7682V15.8837H89.6859V26.9468H91.7766V22.5651L91.1215 21.1907H91.5536C92.2505 22.5515 93.7558 23.6809 95.7629 23.6809ZM95.0241 16.9451C96.9755 16.9451 97.9093 17.9249 97.9093 19.585C97.9093 21.1907 97.0312 22.2793 95.0799 22.2793C92.9334 22.2793 91.7905 20.9594 91.7905 19.5034C91.7905 17.9657 93.0449 16.9451 95.0241 16.9451Z" fill="#1C1C1C"/>
<defs>
<clipPath id="clip0_367_8100">
<rect width="26" height="34" fill="white"/>
</clipPath>
</defs>
</svg>
