<svg width="203" height="60" viewBox="0 0 203 60" fill="none" xmlns="http://www.w3.org/2000/svg">
<g clip-path="url(#clip0_316_26861)">
<path d="M195.481 0H7.51852C5.52448 0 3.61212 0.790176 2.20212 2.1967C0.792127 3.60322 0 5.51088 0 7.5L0 52.5C0 54.4891 0.792127 56.3968 2.20212 57.8033C3.61212 59.2098 5.52448 60 7.51852 60H195.481C197.476 60 199.388 59.2098 200.798 57.8033C202.208 56.3968 203 54.4891 203 52.5V7.5C203 5.51088 202.208 3.60322 200.798 2.1967C199.388 0.790176 197.476 0 195.481 0Z" fill="#1C1C1C"/>
<path d="M195.481 1.2C197.156 1.2 198.763 1.86375 199.947 3.04523C201.132 4.22671 201.797 5.82914 201.797 7.5V52.5C201.797 53.3274 201.634 54.1468 201.317 54.9114C201 55.6759 200.535 56.3706 199.948 56.9557C199.362 57.5407 198.665 58.0048 197.899 58.3212C197.132 58.6377 196.311 58.8004 195.481 58.8H7.51852C5.84353 58.8 4.23714 58.1363 3.05275 56.9548C1.86835 55.7733 1.20296 54.1709 1.20296 52.5V7.5C1.20296 5.82914 1.86835 4.22671 3.05275 3.04523C4.23714 1.86375 5.84353 1.2 7.51852 1.2H195.481ZM195.481 0H7.51852C5.52448 0 3.61212 0.790176 2.20212 2.1967C0.792127 3.60322 0 5.51088 0 7.5L0 52.5C0 54.4891 0.792127 56.3968 2.20212 57.8033C3.61212 59.2098 5.52448 60 7.51852 60H195.481C197.475 59.9992 199.387 59.2088 200.797 57.8024C202.207 56.3961 202.999 54.4889 203 52.5V7.5C202.999 5.51112 202.207 3.60393 200.797 2.19758C199.387 0.791227 197.475 0.000795075 195.481 0Z" fill="#A6A6A6"/>
<path d="M102.462 32.6249C101.2 32.6308 99.9671 33.0097 98.9201 33.7138C97.8732 34.4179 97.0587 35.4156 96.5796 36.581C96.1005 37.7464 95.9783 39.0272 96.2282 40.2619C96.4782 41.4965 97.0892 42.6296 97.9842 43.5182C98.8791 44.4068 100.018 45.011 101.257 45.2545C102.496 45.4981 103.779 45.3701 104.945 44.8867C106.111 44.4033 107.107 43.5862 107.808 42.5385C108.509 41.4908 108.883 40.2595 108.883 38.9999C108.895 38.1569 108.737 37.3202 108.418 36.5394C108.099 35.7586 107.626 35.0498 107.027 34.4551C106.428 33.8603 105.715 33.3918 104.931 33.0774C104.147 32.763 103.307 32.6091 102.462 32.6249ZM102.462 42.8699C101.686 42.9241 100.911 42.744 100.238 42.353C99.5658 41.962 99.0267 41.3782 98.6912 40.6776C98.3556 39.9769 98.2391 39.1917 98.3568 38.4241C98.4745 37.6565 98.821 36.942 99.3512 36.3735C99.8814 35.8049 100.571 35.4086 101.33 35.2361C102.089 35.0635 102.882 35.1227 103.607 35.406C104.332 35.6893 104.954 36.1835 105.394 36.8245C105.833 37.4654 106.069 38.2234 106.071 38.9999C106.096 39.4919 106.021 39.9838 105.851 40.4465C105.682 40.9093 105.421 41.3335 105.085 41.6942C104.749 42.0548 104.343 42.3447 103.893 42.5466C103.443 42.7486 102.956 42.8585 102.462 42.8699ZM88.4629 32.6249C87.1996 32.6279 85.9655 33.0043 84.9165 33.7066C83.8676 34.4089 83.0508 35.4055 82.5694 36.5707C82.088 37.7358 81.9636 39.0171 82.2119 40.2528C82.4601 41.4884 83.07 42.6229 83.9643 43.513C84.8587 44.403 85.9974 45.0087 87.2367 45.2535C88.476 45.4982 89.7602 45.3711 90.9271 44.8882C92.0939 44.4052 93.0912 43.5881 93.7927 42.5401C94.4943 41.4921 94.8687 40.2601 94.8687 38.9999C94.8806 38.1569 94.7223 37.3202 94.4035 36.5394C94.0846 35.7586 93.6116 35.0498 93.0126 34.4551C92.4136 33.8603 91.7008 33.3918 90.9166 33.0774C90.1324 32.763 89.2929 32.6091 88.4479 32.6249H88.4629ZM88.4629 42.8699C87.686 42.9271 86.9098 42.7497 86.2354 42.3607C85.561 41.9718 85.0196 41.3892 84.6817 40.689C84.3437 39.9888 84.225 39.2034 84.3408 38.4349C84.4567 37.6664 84.8018 36.9505 85.3312 36.3804C85.8606 35.8103 86.5498 35.4124 87.3091 35.2385C88.0684 35.0646 88.8626 35.1228 89.5882 35.4054C90.3139 35.6881 90.9375 36.1821 91.3778 36.8232C91.8181 37.4643 92.0547 38.2228 92.0568 38.9999C92.081 39.4919 92.0062 39.9838 91.8368 40.4465C91.6675 40.9093 91.4069 41.3335 91.0706 41.6942C90.7342 42.0548 90.3289 42.3447 89.8784 42.5466C89.428 42.7486 88.9416 42.8585 88.4479 42.8699H88.4629ZM71.7869 34.5899V37.2899H78.2829C78.181 38.5616 77.6511 39.7616 76.7792 40.6949C76.1291 41.3551 75.3478 41.8723 74.4855 42.2133C73.6231 42.5543 72.6987 42.7115 71.7718 42.6749C70.824 42.6749 69.8854 42.4887 69.0097 42.1268C68.134 41.765 67.3383 41.2346 66.6681 40.5661C65.9978 39.8975 65.4662 39.1038 65.1035 38.2302C64.7407 37.3567 64.554 36.4204 64.554 35.4749C64.554 34.5294 64.7407 33.5931 65.1035 32.7196C65.4662 31.846 65.9978 31.0523 66.6681 30.3837C67.3383 29.7151 68.134 29.1848 69.0097 28.823C69.8854 28.4611 70.824 28.2749 71.7718 28.2749C73.603 28.2451 75.3713 28.941 76.6889 30.2099L78.5986 28.3049C77.7092 27.4064 76.6479 26.6952 75.4779 26.2134C74.3078 25.7316 73.0527 25.4889 71.7869 25.4999C70.4535 25.4536 69.1244 25.6756 67.8789 26.1526C66.6334 26.6297 65.4969 27.352 64.5372 28.2766C63.5776 29.2012 62.8144 30.309 62.2931 31.5341C61.7718 32.7592 61.5032 34.0765 61.5032 35.4074C61.5032 36.7383 61.7718 38.0555 62.2931 39.2807C62.8144 40.5058 63.5776 41.6136 64.5372 42.5382C65.4969 43.4628 66.6334 44.1851 67.8789 44.6621C69.1244 45.1392 70.4535 45.3612 71.7869 45.3149C73.074 45.3729 74.3586 45.1553 75.5543 44.6766C76.75 44.1979 77.8291 43.4694 78.7189 42.5399C80.2943 40.8133 81.1354 38.5435 81.0647 36.2099C81.0695 35.6414 81.0192 35.0737 80.9143 34.5149L71.7869 34.5899ZM139.92 36.6899C139.528 35.539 138.794 34.5341 137.817 33.8082C136.839 33.0823 135.664 32.6696 134.446 32.6249C133.624 32.6235 132.81 32.7904 132.054 33.1151C131.299 33.4399 130.619 33.9157 130.055 34.5132C129.491 35.1106 129.056 35.817 128.777 36.5887C128.498 37.3604 128.38 38.181 128.431 38.9999C128.413 39.8383 128.564 40.6717 128.876 41.4504C129.188 42.2292 129.654 42.9372 130.246 43.5323C130.839 44.1273 131.545 44.5972 132.324 44.9138C133.102 45.2304 133.936 45.3872 134.777 45.3749C135.829 45.3806 136.866 45.1259 137.795 44.6338C138.724 44.1416 139.516 43.4274 140.1 42.5549L137.92 41.0549C137.594 41.5961 137.134 42.0437 136.583 42.354C136.032 42.6642 135.41 42.8265 134.777 42.8249C134.126 42.8497 133.482 42.6784 132.929 42.3333C132.377 41.9882 131.941 41.4852 131.679 40.8899L140.235 37.3649L139.92 36.6899ZM131.198 38.8199C131.168 38.3559 131.23 37.8906 131.382 37.4511C131.534 37.0115 131.773 36.6067 132.084 36.2603C132.395 35.9139 132.772 35.6328 133.193 35.4335C133.614 35.2343 134.071 35.1209 134.536 35.0999C135.021 35.068 135.505 35.179 135.928 35.419C136.35 35.659 136.692 36.0175 136.912 36.4499L131.198 38.8199ZM124.251 44.9999H127.063V26.2499H124.251V44.9999ZM119.65 34.0499H119.544C119.121 33.5772 118.602 33.1993 118.021 32.9408C117.441 32.6823 116.812 32.5491 116.176 32.5499C114.533 32.6294 112.983 33.3365 111.848 34.5248C110.714 35.713 110.081 37.2912 110.081 38.9324C110.081 40.5735 110.714 42.1518 111.848 43.34C112.983 44.5283 114.533 45.2354 116.176 45.3149C116.813 45.3256 117.445 45.1968 118.027 44.9377C118.609 44.6785 119.127 44.2953 119.544 43.8149H119.635V44.7299C119.635 47.1749 118.326 48.4799 116.221 48.4799C115.52 48.4635 114.84 48.2394 114.267 47.836C113.694 47.4327 113.254 46.8684 113.003 46.2149L110.552 47.2349C111.014 48.3544 111.8 49.311 112.81 49.9818C113.82 50.6526 115.008 51.0071 116.221 50.9999C119.514 50.9999 122.236 49.0649 122.236 44.3549V32.9999H119.65V34.0499ZM116.432 42.8699C115.462 42.7846 114.559 42.34 113.901 41.6237C113.244 40.9073 112.879 39.9712 112.879 38.9999C112.879 38.0286 113.244 37.0925 113.901 36.3761C114.559 35.6598 115.462 35.2152 116.432 35.1299C116.913 35.1545 117.384 35.2749 117.817 35.4839C118.251 35.693 118.638 35.9865 118.956 36.3471C119.274 36.7078 119.517 37.1283 119.67 37.5839C119.822 38.0395 119.882 38.5209 119.845 38.9999C119.886 39.481 119.829 39.9654 119.678 40.4238C119.526 40.8823 119.282 41.3052 118.962 41.667C118.641 42.0288 118.25 42.322 117.813 42.5287C117.375 42.7355 116.9 42.8516 116.417 42.8699H116.432ZM153.092 26.2499H146.371V44.9999H149.182V37.8899H153.107C153.907 37.9443 154.709 37.8341 155.464 37.5662C156.219 37.2983 156.911 36.8785 157.497 36.3327C158.082 35.787 158.549 35.1269 158.869 34.3936C159.188 33.6603 159.353 32.8694 159.353 32.0699C159.353 31.2704 159.188 30.4795 158.869 29.7462C158.549 29.0128 158.082 28.3528 157.497 27.8071C156.911 27.2613 156.219 26.8415 155.464 26.5736C154.709 26.3057 153.907 26.1955 153.107 26.2499H153.092ZM153.092 35.2499H149.167V28.8599H153.152C153.79 28.8612 154.412 29.0506 154.942 29.4044C155.472 29.7582 155.884 30.2604 156.128 30.8479C156.372 31.4353 156.437 32.0816 156.313 32.7053C156.189 33.3291 155.883 33.9024 155.433 34.3529C154.828 34.956 154.008 35.2948 153.152 35.2949L153.092 35.2499ZM170.43 32.5499C169.406 32.4885 168.387 32.7269 167.497 33.236C166.607 33.745 165.886 34.5024 165.422 35.4149L167.919 36.4499C168.165 35.9974 168.537 35.6261 168.991 35.3811C169.445 35.1361 169.961 35.0279 170.475 35.0699C171.012 35.008 171.556 35.1079 172.036 35.3568C172.517 35.6056 172.911 35.9921 173.17 36.4664C173.341 36.7814 173.446 37.1279 173.482 37.4849V37.6799C172.579 37.2029 171.572 36.9556 170.55 36.9599C167.858 36.9599 165.137 38.4599 165.137 41.1749C165.164 41.7536 165.308 42.321 165.558 42.8438C165.808 43.3667 166.16 43.8345 166.594 44.2199C167.029 44.6043 167.536 44.8979 168.087 45.0834C168.637 45.2689 169.219 45.3425 169.798 45.2999C170.506 45.35 171.215 45.2093 171.85 44.8927C172.485 44.576 173.022 44.095 173.407 43.4999H173.497V44.9999H176.204V37.7849C176.204 34.4999 173.708 32.5949 170.505 32.5949L170.43 32.5499ZM170.084 42.8249C169.167 42.8249 167.889 42.3599 167.889 41.2349C167.889 39.7349 169.482 39.2399 170.896 39.2399C171.789 39.2179 172.672 39.4355 173.452 39.8699C173.357 40.6815 172.972 41.4316 172.367 41.9827C171.762 42.5337 170.978 42.8487 170.159 42.8699L170.084 42.8249ZM186.068 32.9999L182.85 41.1299H182.76L179.422 32.9999H176.415L181.422 44.3699L178.565 50.6849H181.497L189.196 32.9999H186.068ZM160.791 44.9999H163.603V26.2499H160.791V44.9999Z" fill="white"/>
<path d="M15.6986 11.3101C15.2084 11.8967 14.9611 12.6478 15.0069 13.4101V46.5901C14.9611 47.3524 15.2084 48.1034 15.6986 48.6901L15.8038 48.7951L34.4347 30.2251V29.7901L15.8038 11.2051L15.6986 11.3101Z" fill="url(#paint0_linear_316_26861)"/>
<path d="M40.5998 36.4201L34.4346 30.2251V29.7901L40.5998 23.5801L40.7351 23.6551L48.1183 27.8401C50.2235 29.0251 50.2235 30.9751 48.1183 32.1751L40.7652 36.3451L40.5998 36.4201Z" fill="url(#paint1_linear_316_26861)"/>
<path d="M40.7805 36.33L34.4349 30L15.6987 48.69C16.1278 49.0663 16.6752 49.2812 17.2463 49.2976C17.8174 49.3141 18.3763 49.131 18.8264 48.78L40.7955 36.33" fill="url(#paint2_linear_316_26861)"/>
<path d="M40.7804 23.6701L18.8113 11.2201C18.3612 10.8691 17.8023 10.686 17.2312 10.7024C16.6601 10.7189 16.1127 10.9338 15.6836 11.3101L34.4348 30.0001L40.7804 23.6701Z" fill="url(#paint3_linear_316_26861)"/>
<path opacity="0.2" d="M40.6001 36.1951L18.8114 48.5701C18.3773 48.8939 17.8498 49.0688 17.3077 49.0688C16.7656 49.0688 16.2381 48.8939 15.804 48.5701L15.6987 48.6751L15.804 48.7801C16.2371 49.1062 16.765 49.2826 17.3077 49.2826C17.8504 49.2826 18.3782 49.1062 18.8114 48.7801L40.7805 36.3301L40.6001 36.1951Z" fill="#1C1C1C"/>
<path opacity="0.12" d="M15.6986 48.48C15.2084 47.8933 14.9611 47.1423 15.0069 46.38V46.605C14.9611 47.3673 15.2084 48.1183 15.6986 48.705L15.8038 48.6L15.6986 48.48ZM48.1184 31.95L40.5999 36.195L40.7352 36.33L48.1184 32.16C48.5373 31.9637 48.897 31.6606 49.161 31.2814C49.425 30.9021 49.584 30.4602 49.6221 30C49.5375 30.4181 49.358 30.8112 49.0974 31.1493C48.8367 31.4873 48.5018 31.7612 48.1184 31.95Z" fill="#1C1C1C"/>
<path opacity="0.25" d="M18.8114 11.4299L48.1185 28.0499C48.5019 28.2387 48.8368 28.5126 49.0975 28.8506C49.3582 29.1887 49.5377 29.5818 49.6222 29.9999C49.5842 29.5398 49.4251 29.0978 49.1611 28.7185C48.8971 28.3393 48.5375 28.0362 48.1185 27.8399L18.8114 11.2199C16.7062 10.0349 14.9919 11.0249 14.9919 13.4249V13.6499C15.0371 11.2349 16.7212 10.2449 18.8114 11.4299Z" fill="white"/>
<path d="M63.321 21.405H62.2083V18.405H63.1556C63.5875 17.9483 63.9138 17.4027 64.1112 16.8066C64.3087 16.2105 64.3726 15.5784 64.2984 14.955V10.5H70.3132V18.39H71.3207V21.39H70.208V19.5H63.321V21.405ZM65.4111 15C65.4813 16.2099 65.1825 17.4127 64.554 18.45H69.0651V11.61H65.4111V15ZM80.3128 18.33C79.4338 19.202 78.2444 19.6915 77.0047 19.6915C75.765 19.6915 74.5756 19.202 73.6965 18.33C72.8421 17.4277 72.3661 16.2336 72.3661 14.9925C72.3661 13.7513 72.8421 12.5572 73.6965 11.655C74.1298 11.2196 74.6452 10.874 75.213 10.6382C75.7808 10.4024 76.3897 10.281 77.0047 10.281C77.6197 10.281 78.2286 10.4024 78.7964 10.6382C79.3642 10.874 79.8796 11.2196 80.3128 11.655C81.1707 12.5554 81.649 13.7502 81.649 14.9925C81.649 16.2347 81.1707 17.4295 80.3128 18.33ZM74.5537 17.58C75.2047 18.2266 76.086 18.5897 77.0047 18.5897C77.9234 18.5897 78.8047 18.2266 79.4557 17.58C80.0982 16.8735 80.454 15.9538 80.454 15C80.454 14.0461 80.0982 13.1264 79.4557 12.42C78.8047 11.7733 77.9234 11.4102 77.0047 11.4102C76.086 11.4102 75.2047 11.7733 74.5537 12.42C73.9112 13.1264 73.5554 14.0461 73.5554 15C73.5554 15.9538 73.9112 16.8735 74.5537 17.58ZM87.4855 19.695C86.8648 19.7071 86.2481 19.5938 85.6724 19.3619C85.0967 19.1301 84.574 18.7844 84.1357 18.3458C83.6974 17.9072 83.3526 17.3847 83.122 16.8097C82.8914 16.2347 82.7798 15.6191 82.794 15C82.7796 14.3808 82.8911 13.7651 83.1216 13.19C83.3521 12.6149 83.6969 12.0923 84.1352 11.6536C84.5736 11.215 85.0964 10.8693 85.6721 10.6376C86.2479 10.4058 86.8647 10.2926 87.4855 10.305C88.1147 10.2894 88.7392 10.4163 89.3122 10.6761C89.8852 10.9359 90.3917 11.3219 90.7937 11.805L89.9817 12.585C89.6847 12.2088 89.3017 11.9091 88.8649 11.7107C88.428 11.5124 87.9499 11.4213 87.4705 11.445C87.0089 11.433 86.5497 11.5146 86.1207 11.6847C85.6916 11.8549 85.3016 12.1101 84.9743 12.435C84.3224 13.1457 83.9608 14.0741 83.9608 15.0375C83.9608 16.0008 84.3224 16.9293 84.9743 17.64C85.3016 17.9648 85.6916 18.22 86.1207 18.3902C86.5497 18.5604 87.0089 18.6419 87.4705 18.63C87.9997 18.625 88.5212 18.5027 88.9972 18.2718C89.4731 18.0409 89.8916 17.7072 90.2223 17.295L91.0343 18.105C90.6247 18.5998 90.1114 18.9991 89.5306 19.275C88.8887 19.565 88.19 19.7084 87.4855 19.695ZM95.7559 19.5H94.598V11.61H92.0718V10.5H98.2671V11.61H95.7559V19.5ZM106.237 10.5L102.823 18.09C102.687 18.5389 102.414 18.9345 102.042 19.222C101.67 19.5095 101.218 19.6748 100.748 19.695C100.437 19.6909 100.131 19.6246 99.846 19.5L100.147 18.435C100.33 18.54 100.538 18.5985 100.748 18.6C100.969 18.6166 101.19 18.5641 101.38 18.45C101.561 18.297 101.701 18.1009 101.786 17.88L102.117 17.16L99.1091 10.515H100.478L102.703 15.675L104.868 10.5H106.237ZM107.545 19.5V10.5H114.071V19.5H112.913V11.61H108.703V19.5H107.545ZM116.131 19.5V10.5H117.289V14.355H121.8V10.5H122.958V19.5H121.8V15.435H117.289V19.5H116.131ZM132.416 18.33C131.537 19.202 130.348 19.6915 129.108 19.6915C127.868 19.6915 126.679 19.202 125.8 18.33C124.945 17.4277 124.469 16.2336 124.469 14.9925C124.469 13.7513 124.945 12.5572 125.8 11.655C126.233 11.2196 126.749 10.874 127.316 10.6382C127.884 10.4024 128.493 10.281 129.108 10.281C129.723 10.281 130.332 10.4024 130.9 10.6382C131.468 10.874 131.983 11.2196 132.416 11.655C133.274 12.5554 133.752 13.7502 133.752 14.9925C133.752 16.2347 133.274 17.4295 132.416 18.33ZM126.657 17.58C127.308 18.2266 128.189 18.5897 129.108 18.5897C130.027 18.5897 130.908 18.2266 131.559 17.58C132.202 16.8735 132.557 15.9538 132.557 15C132.557 14.0461 132.202 13.1264 131.559 12.42C130.908 11.7733 130.027 11.4102 129.108 11.4102C128.189 11.4102 127.308 11.7733 126.657 12.42C126.015 13.1264 125.659 14.0461 125.659 15C125.659 15.9538 126.015 16.8735 126.657 17.58ZM138.476 19.5V10.5H141.739C142.417 10.4872 143.073 10.7342 143.574 11.19C143.825 11.4075 144.025 11.6774 144.16 11.9807C144.295 12.284 144.362 12.6131 144.356 12.945C144.363 13.3448 144.247 13.7373 144.025 14.07C143.804 14.3931 143.497 14.6478 143.138 14.805C143.574 14.949 143.956 15.2205 144.235 15.585C144.524 15.9525 144.679 16.4085 144.671 16.875C144.679 17.2208 144.61 17.564 144.47 17.8803C144.33 18.1966 144.121 18.4781 143.859 18.705C143.336 19.1867 142.647 19.4498 141.935 19.44L138.476 19.5ZM139.634 14.355H141.739C141.936 14.3631 142.132 14.3285 142.314 14.2533C142.495 14.1782 142.659 14.0644 142.792 13.92C142.925 13.7995 143.032 13.6536 143.108 13.4908C143.183 13.3281 143.225 13.1519 143.23 12.9727C143.236 12.7935 143.205 12.615 143.14 12.4479C143.075 12.2808 142.977 12.1284 142.852 12C142.726 11.8582 142.571 11.7457 142.397 11.6705C142.223 11.5953 142.034 11.5593 141.844 11.565H139.694L139.634 14.355ZM139.634 18.39H141.965C142.168 18.3968 142.371 18.3586 142.558 18.2782C142.745 18.1979 142.912 18.0772 143.047 17.925C143.312 17.6506 143.463 17.286 143.468 16.905C143.468 16.5071 143.31 16.1256 143.028 15.8443C142.746 15.563 142.364 15.405 141.965 15.405H139.679L139.634 18.39Z" fill="white" stroke="white" stroke-width="0.2" stroke-miterlimit="10"/>
</g>
<defs>
<linearGradient id="paint0_linear_316_26861" x1="32.7806" y1="13.0651" x2="7.61071" y2="38.2971" gradientUnits="userSpaceOnUse">
<stop stop-color="#00A0FF"/>
<stop offset="0.01" stop-color="#00A1FF"/>
<stop offset="0.26" stop-color="#00BEFF"/>
<stop offset="0.51" stop-color="#00D2FF"/>
<stop offset="0.76" stop-color="#00DFFF"/>
<stop offset="1" stop-color="#00E3FF"/>
</linearGradient>
<linearGradient id="paint1_linear_316_26861" x1="50.8701" y1="30.0001" x2="14.4955" y2="30.0001" gradientUnits="userSpaceOnUse">
<stop stop-color="#FFE000"/>
<stop offset="0.41" stop-color="#FFBD00"/>
<stop offset="0.78" stop-color="#FFA500"/>
<stop offset="1" stop-color="#FF9C00"/>
</linearGradient>
<linearGradient id="paint2_linear_316_26861" x1="37.337" y1="33.45" x2="3.19709" y2="67.6592" gradientUnits="userSpaceOnUse">
<stop stop-color="#FF3A44"/>
<stop offset="1" stop-color="#C31162"/>
</linearGradient>
<linearGradient id="paint3_linear_316_26861" x1="10.977" y1="0.270073" x2="26.217" y2="15.5477" gradientUnits="userSpaceOnUse">
<stop stop-color="#32A071"/>
<stop offset="0.07" stop-color="#2DA771"/>
<stop offset="0.48" stop-color="#15CF74"/>
<stop offset="0.8" stop-color="#06E775"/>
<stop offset="1" stop-color="#00F076"/>
</linearGradient>
<clipPath id="clip0_316_26861">
<rect width="203" height="60" fill="white"/>
</clipPath>
</defs>
</svg>
