<svg width="107" height="17" viewBox="0 0 107 17" fill="none" xmlns="http://www.w3.org/2000/svg">
<path d="M11.8269 0.475496L7.54296 10.3011H6.84605L7.27649 9.16043L3.23855 0.475496H0L4.73485 10.2611C5.18578 11.3016 5.88269 11.6618 7.01003 11.7219L8.09638 14.5235H4.3659V16.7447H11.9908L10.0026 11.902L14.9219 0.475496H11.8269Z" fill="white"/>
<path d="M23.8105 0.255371C20.203 0.255371 16.247 2.31654 16.247 6.17873C16.247 9.8208 19.7931 12.0621 23.708 12.0621C27.5615 12.0621 31.046 9.90085 31.046 6.17873C31.046 2.15645 27.2745 0.255371 23.8105 0.255371ZM19.3011 6.13871C19.3011 4.19761 20.7769 1.97635 23.7285 1.97635C26.4341 1.97635 27.9714 3.85742 27.9714 6.13871C27.9714 8.60011 26.2087 10.4612 23.667 10.4612C21.1049 10.4612 19.3011 8.5801 19.3011 6.13871Z" fill="white"/>
<path d="M40.5045 0.255371C36.897 0.255371 32.941 2.31654 32.941 6.17873C32.941 9.8208 36.487 12.0621 40.402 12.0621C44.2555 12.0621 47.74 9.90085 47.74 6.17873C47.74 2.15645 43.9685 0.255371 40.5045 0.255371ZM35.9951 6.13871C35.9951 4.19761 37.4709 1.97635 40.4225 1.97635C43.1281 1.97635 44.6654 3.85742 44.6654 6.13871C44.6654 8.60011 42.9026 10.4612 40.361 10.4612C37.7989 10.4612 35.9951 8.5801 35.9951 6.13871Z" fill="white"/>
<path d="M49.7785 10.3211C49.7785 11.2816 50.4959 11.922 51.5617 11.922C52.6276 11.922 53.345 11.2816 53.345 10.3211C53.345 9.34053 52.6276 8.70017 51.5617 8.70017C50.4959 8.70017 49.7785 9.34053 49.7785 10.3211Z" fill="white"/>
<path d="M55.2568 8.17987C55.2568 10.5812 57.7165 11.942 60.2376 11.942C62.1644 11.942 64.9315 11.1616 66.3048 8.15986L66.9197 8.48004C66.7147 8.78021 66.3253 9.96088 66.3253 10.6012C66.3253 11.0615 66.6123 11.7619 67.2682 11.7619L67.6576 11.7419V11.7619H71.2651V9.52063H69.2359V5.73848C69.2359 2.05639 67.4936 0.475496 63.5992 0.475496H56.5072L56.5277 2.63672H62.5128C65.157 2.63672 66.1613 3.45719 66.1613 5.45832C66.1613 5.77851 66.1818 6.57896 66.1613 6.93917C64.7675 6.03865 62.7383 4.85798 60.0532 4.85798C57.5525 4.85798 55.2568 5.85855 55.2568 8.17987ZM58.3314 8.21989C58.3314 6.61898 60.2786 6.33883 61.16 6.33883C63.2302 6.33883 65.5874 7.83968 65.5874 7.83968C65.5874 7.83968 64.3371 10.221 61.406 10.221C59.8482 10.221 58.3314 9.54064 58.3314 8.21989Z" fill="white"/>
<path d="M82.0873 11.942C85.3054 11.942 88.3184 10.0009 88.3184 6.09869C88.3184 2.2365 85.3873 0.295393 82.1693 0.295393C79.5661 0.295393 76.9835 1.57612 75.9996 3.117H75.3027L76.2251 1.77623V0.475496H73.1505V16.7447H76.2251V10.3011L75.2617 8.27993H75.8972C76.922 10.2811 79.1357 11.942 82.0873 11.942ZM81.0009 2.03638C83.8705 2.03638 85.2439 3.4772 85.2439 5.91859C85.2439 8.27993 83.9525 9.88084 81.0829 9.88084C77.9264 9.88084 76.2456 7.93973 76.2456 5.79852C76.2456 3.53723 78.0903 2.03638 81.0009 2.03638Z" fill="white"/>
<path d="M99.9022 11.942C103.12 11.942 106.133 10.0009 106.133 6.09869C106.133 2.2365 103.202 0.295393 99.9842 0.295393C97.3811 0.295393 94.7984 1.57612 93.8146 3.117H93.1177L94.04 1.77623V0.475496H90.9655V16.7447H94.04V10.3011L93.0767 8.27993H93.7121C94.7369 10.2811 96.9506 11.942 99.9022 11.942ZM98.8159 2.03638C101.685 2.03638 103.059 3.4772 103.059 5.91859C103.059 8.27993 101.767 9.88084 98.8979 9.88084C95.7413 9.88084 94.0605 7.93973 94.0605 5.79852C94.0605 3.53723 95.9053 2.03638 98.8159 2.03638Z" fill="white"/>
</svg>
